<?xml version="1.0" encoding="UTF-8" standalone="no"?>
<!-- Created with Inkscape (http://www.inkscape.org/) -->

<svg
   width="30.48mm"
   height="128.5mm"
   viewBox="0 0 30.48 128.5"
   version="1.1"
   id="svg5"
   inkscape:version="1.2.1 (9c6d41e, 2022-07-14)"
   sodipodi:docname="Clock.svg"
   xmlns:inkscape="http://www.inkscape.org/namespaces/inkscape"
   xmlns:sodipodi="http://sodipodi.sourceforge.net/DTD/sodipodi-0.dtd"
   xmlns="http://www.w3.org/2000/svg"
   xmlns:svg="http://www.w3.org/2000/svg">
  <sodipodi:namedview
     id="namedview7"
     pagecolor="#ffffff"
     bordercolor="#000000"
     borderopacity="0.25"
     inkscape:showpageshadow="2"
     inkscape:pageopacity="0.0"
     inkscape:pagecheckerboard="0"
     inkscape:deskcolor="#d1d1d1"
     inkscape:document-units="mm"
     showgrid="false"
     inkscape:zoom="4.5153252"
     inkscape:cx="61.678836"
     inkscape:cy="47.172682"
     inkscape:window-width="1920"
     inkscape:window-height="1052"
     inkscape:window-x="0"
     inkscape:window-y="28"
     inkscape:window-maximized="0"
     inkscape:current-layer="layer1" />
  <defs
     id="defs2" />
  <g
     inkscape:label="Layer 1"
     inkscape:groupmode="layer"
     id="layer1">
    <rect
       style="fill:#ffffff;stroke-width:0.26202"
       id="rect1514"
       width="31.257294"
       height="128.39734"
       x="-0.43028441"
       y="0.21427973" />
    <g
       aria-label="clock"
       id="text3353"
       style="font-size:6.35px;font-family:serif;-inkscape-font-specification:'serif, Normal';stroke-width:0.264583">
      <path
         d="m 11.326083,8.4265789 q -0.114722,0.5612061 -0.449585,0.8650635 -0.334864,0.3007568 -0.74104,0.3007568 -0.4836918,0 -0.8433598,-0.4061767 -0.3596679,-0.4061768 -0.3596679,-1.0976074 0,-0.6697266 0.396875,-1.0883057 0.3999755,-0.4185791 0.9580807,-0.4185791 0.418579,0 0.68833,0.2232422 0.269751,0.2201416 0.269751,0.4588867 0,0.1178223 -0.07751,0.1922363 -0.07441,0.071313 -0.21084,0.071313 -0.182935,0 -0.275952,-0.1178223 -0.05271,-0.065112 -0.07131,-0.2480468 -0.0155,-0.1829346 -0.124023,-0.2790528 -0.108521,-0.093017 -0.300757,-0.093017 -0.3100586,0 -0.4991944,0.2294433 -0.2511474,0.3038574 -0.2511474,0.8030518 0,0.5084961 0.2480468,0.8991699 0.2511475,0.3875732 0.675928,0.3875732 0.303857,0 0.545703,-0.2077392 0.170532,-0.142627 0.331763,-0.5177979 z"
         id="path9863" />
      <path
         d="m 12.708944,5.0965497 v 3.7672118 q 0,0.2666504 0.03721,0.3534668 0.04031,0.086816 0.120923,0.1333252 0.08061,0.043408 0.300757,0.043408 V 9.5055828 H 11.775668 V 9.3939617 q 0.195336,0 0.26665,-0.040308 0.07131,-0.040308 0.111621,-0.1333252 0.04031,-0.093018 0.04031,-0.3565674 V 6.2840741 q 0,-0.4805908 -0.0217,-0.5891114 -0.0217,-0.111621 -0.07131,-0.1519287 -0.04651,-0.040308 -0.120923,-0.040308 -0.08061,0 -0.204638,0.049609 l -0.05271,-0.1085205 0.84646,-0.3472656 z"
         id="path9865" />
      <path
         d="m 14.885555,6.5817303 q 0.644922,0 1.035596,0.4898926 0.331763,0.4185791 0.331763,0.9611816 0,0.3813721 -0.182935,0.7720459 -0.182935,0.3906738 -0.505396,0.5891113 -0.31936,0.1984375 -0.713134,0.1984375 -0.641822,0 -1.020093,-0.5115967 -0.31936,-0.4309814 -0.31936,-0.9673828 0,-0.3906738 0.192236,-0.7751464 Q 13.899569,6.9507 14.215829,6.7677655 14.532088,6.5817303 14.885555,6.5817303 Z m -0.09612,0.2015381 q -0.164331,0 -0.331763,0.099219 -0.164331,0.096118 -0.26665,0.3410645 -0.102319,0.2449463 -0.102319,0.6294189 0,0.6201172 0.244946,1.0697022 0.248047,0.4495849 0.651123,0.4495849 0.300757,0 0.496094,-0.2480469 0.195337,-0.2480468 0.195337,-0.8526611 0,-0.7565429 -0.325562,-1.190625 -0.220142,-0.2976562 -0.561206,-0.2976562 z"
         id="path9867" />
      <path
         d="m 19.083748,8.4265789 q -0.114721,0.5612061 -0.449585,0.8650635 -0.334863,0.3007568 -0.74104,0.3007568 -0.483691,0 -0.843359,-0.4061767 -0.359668,-0.4061768 -0.359668,-1.0976074 0,-0.6697266 0.396875,-1.0883057 0.399975,-0.4185791 0.958081,-0.4185791 0.418579,0 0.68833,0.2232422 0.269751,0.2201416 0.269751,0.4588867 0,0.1178223 -0.07751,0.1922363 -0.07441,0.071313 -0.21084,0.071313 -0.182934,0 -0.275952,-0.1178223 -0.05271,-0.065112 -0.07131,-0.2480468 -0.0155,-0.1829346 -0.124024,-0.2790528 -0.10852,-0.093017 -0.300756,-0.093017 -0.310059,0 -0.499195,0.2294433 -0.251147,0.3038574 -0.251147,0.8030518 0,0.5084961 0.248047,0.8991699 0.251147,0.3875732 0.675927,0.3875732 0.303858,0 0.545704,-0.2077392 0.170532,-0.142627 0.331762,-0.5177979 z"
         id="path9869" />
      <path
         d="M 20.330184,5.0965497 V 7.924284 L 21.05262,7.2638592 q 0.229444,-0.2108398 0.266651,-0.2666504 0.02481,-0.037207 0.02481,-0.074414 0,-0.062012 -0.05271,-0.10542 -0.04961,-0.046509 -0.167432,-0.05271 v -0.099219 h 1.234033 v 0.099219 q -0.254248,0.0062 -0.42478,0.077515 -0.167432,0.071313 -0.36897,0.2542481 l -0.728638,0.6728271 0.728638,0.920874 q 0.303858,0.3813721 0.409277,0.4836914 0.148829,0.1457276 0.26045,0.1891358 0.07751,0.031006 0.269751,0.031006 V 9.5055828 H 21.123934 V 9.3939617 q 0.117822,-0.0031 0.15813,-0.034106 0.04341,-0.034107 0.04341,-0.093018 0,-0.071314 -0.124023,-0.2294434 L 20.330184,7.924284 v 0.9425781 q 0,0.2759522 0.03721,0.3627686 0.04031,0.086816 0.111621,0.1240234 0.07131,0.037207 0.310059,0.040308 V 9.5055828 H 19.344198 V 9.3939617 q 0.217041,0 0.325561,-0.05271 0.06511,-0.034107 0.09922,-0.10542 0.04651,-0.1023193 0.04651,-0.3534668 V 6.2964764 q 0,-0.4929931 -0.0217,-0.6015137 -0.0217,-0.111621 -0.07131,-0.1519287 -0.04961,-0.043408 -0.130224,-0.043408 -0.06511,0 -0.195337,0.05271 l -0.05271,-0.1085205 0.843359,-0.3472656 z"
         id="path9871" />
    </g>
    <g
       aria-label="ramp out"
       id="text9480"
       style="font-size:3.175px;font-family:serif;-inkscape-font-specification:'serif, Normal';stroke-width:0.264583">
      <path
         d="m 17.917041,99.77962 v 0.31936 q 0.178284,-0.31936 0.365869,-0.31936 0.08527,0 0.141077,0.05271 0.05581,0.05116 0.05581,0.119373 0,0.06046 -0.04031,0.102317 -0.04031,0.0419 -0.09612,0.0419 -0.05426,0 -0.122474,-0.0527 -0.06666,-0.05426 -0.09922,-0.05426 -0.02791,0 -0.06046,0.03101 -0.06976,0.0636 -0.144177,0.20929 v 0.68057 q 0,0.11783 0.02946,0.17829 0.02015,0.0419 0.07131,0.0698 0.05116,0.0279 0.147278,0.0279 v 0.0558 H 17.438 v -0.0558 q 0.108521,0 0.161231,-0.0341 0.03876,-0.0248 0.05426,-0.0791 0.0078,-0.0263 0.0078,-0.15037 v -0.55036 q 0,-0.24804 -0.01085,-0.29455 -0.0093,-0.0481 -0.03721,-0.0698 -0.02635,-0.0217 -0.06666,-0.0217 -0.04806,0 -0.108521,0.02325 l -0.0155,-0.05581 0.429431,-0.173633 z"
         id="path9613" />
      <path
         d="m 19.363464,101.03691 q -0.218591,0.16898 -0.274402,0.19533 -0.08371,0.0388 -0.178283,0.0388 -0.147278,0 -0.243396,-0.10077 -0.09457,-0.10077 -0.09457,-0.2651 0,-0.10387 0.04651,-0.17983 0.06356,-0.10542 0.220141,-0.19844 0.15813,-0.093 0.523999,-0.22634 v -0.0558 q 0,-0.21239 -0.06821,-0.291457 -0.06666,-0.07906 -0.195337,-0.07906 -0.09767,0 -0.155029,0.05271 -0.05891,0.05271 -0.05891,0.120922 l 0.0031,0.0899 q 0,0.0713 -0.03721,0.11007 -0.03566,0.0388 -0.09457,0.0388 -0.05736,0 -0.09457,-0.0403 -0.03566,-0.0403 -0.03566,-0.11007 0,-0.13333 0.136426,-0.244949 0.136426,-0.111621 0.382922,-0.111621 0.189136,0 0.310059,0.06356 0.09147,0.04806 0.134875,0.150379 0.02791,0.06666 0.02791,0.272849 v 0.48214 q 0,0.20309 0.0078,0.2496 0.0078,0.045 0.02481,0.0605 0.0186,0.0155 0.04186,0.0155 0.0248,0 0.04341,-0.0109 0.03256,-0.0202 0.125574,-0.11317 v 0.0868 q -0.173633,0.23254 -0.331763,0.23254 -0.07596,0 -0.120923,-0.0527 -0.04496,-0.0527 -0.04651,-0.17983 z m 0,-0.10077 v -0.54105 q -0.234094,0.093 -0.302307,0.13177 -0.122473,0.0682 -0.175183,0.14263 -0.05271,0.0744 -0.05271,0.16278 0,0.11162 0.06666,0.18603 0.06666,0.0729 0.153479,0.0729 0.117822,0 0.310058,-0.15503 z"
         id="path9615" />
      <path
         d="m 20.389758,100.08193 q 0.155029,-0.155032 0.182935,-0.178286 0.06976,-0.05891 0.150378,-0.09147 0.08061,-0.03256 0.15968,-0.03256 0.133326,0 0.229444,0.07752 0.09612,0.07752 0.128674,0.224795 0.15968,-0.186038 0.269751,-0.243398 0.110071,-0.05891 0.226343,-0.05891 0.113171,0 0.199988,0.05891 0.08837,0.05736 0.139526,0.189138 0.03411,0.0899 0.03411,0.28215 v 0.61082 q 0,0.13332 0.02015,0.18293 0.0155,0.0341 0.05736,0.0589 0.04186,0.0233 0.136426,0.0233 v 0.0558 h -0.700733 v -0.0558 h 0.02946 q 0.09147,0 0.142627,-0.0357 0.03566,-0.0248 0.05116,-0.0791 0.0062,-0.0264 0.0062,-0.15037 v -0.61082 q 0,-0.17363 -0.04186,-0.24495 -0.06046,-0.09921 -0.193787,-0.09921 -0.08216,0 -0.165881,0.04185 -0.08217,0.0403 -0.199988,0.15193 l -0.0031,0.0171 0.0031,0.0667 v 0.67748 q 0,0.14572 0.0155,0.18138 0.01705,0.0357 0.06201,0.0605 0.04496,0.0233 0.153479,0.0233 v 0.0558 h -0.717786 v -0.0558 q 0.117822,0 0.161231,-0.0279 0.04496,-0.0279 0.06201,-0.0837 0.0078,-0.0264 0.0078,-0.15347 v -0.61082 q 0,-0.17363 -0.05116,-0.2496 -0.06821,-0.09922 -0.190686,-0.09922 -0.08372,0 -0.165881,0.04496 -0.128675,0.0682 -0.198438,0.15348 v 0.7612 q 0,0.13952 0.0186,0.18138 0.02015,0.0419 0.05736,0.0636 0.03876,0.0202 0.155029,0.0202 v 0.0558 h -0.702283 v -0.0558 q 0.09767,0 0.136426,-0.0202 0.03876,-0.0217 0.05891,-0.0667 0.02015,-0.0465 0.02015,-0.17828 v -0.54261 q 0,-0.23409 -0.01395,-0.3023 -0.01085,-0.0512 -0.03411,-0.0698 -0.02325,-0.02015 -0.06356,-0.02015 -0.04341,0 -0.10387,0.02325 l -0.02325,-0.05581 0.427881,-0.173633 h 0.06666 z"
         id="path9617" />
      <path
         d="m 22.335376,99.962555 0.437182,-0.176733 h 0.05891 v 0.331758 q 0.110071,-0.187581 0.220142,-0.261995 0.111621,-0.07597 0.234094,-0.07597 0.213941,0 0.356568,0.167432 0.175183,0.204638 0.175183,0.533298 0,0.36742 -0.21084,0.60772 -0.173633,0.19688 -0.437183,0.19688 -0.114721,0 -0.198437,-0.0326 -0.06201,-0.0233 -0.139527,-0.093 v 0.43253 q 0,0.14573 0.01705,0.18449 0.0186,0.0403 0.06201,0.0636 0.04496,0.0232 0.161231,0.0232 v 0.0574 h -0.744141 v -0.0574 h 0.03876 q 0.08527,0.002 0.145728,-0.0326 0.02946,-0.0171 0.04496,-0.0558 0.01705,-0.0372 0.01705,-0.19224 v -1.34255 q 0,-0.13798 -0.0124,-0.17519 -0.0124,-0.0372 -0.04031,-0.0558 -0.02635,-0.0186 -0.07286,-0.0186 -0.03721,0 -0.09457,0.0217 z m 0.496093,0.246495 v 0.5302 q 0,0.17208 0.01395,0.22634 0.0217,0.0899 0.10542,0.15813 0.08527,0.0682 0.21394,0.0682 0.15503,0 0.251148,-0.12093 0.125574,-0.15813 0.125574,-0.44493 0,-0.32556 -0.142627,-0.50074 -0.09922,-0.12093 -0.235645,-0.12093 -0.07441,0 -0.147278,0.0372 -0.05581,0.0279 -0.184485,0.16743 z"
         id="path9619" />
      <path
         d="m 25.513477,99.77962 q 0.32246,0 0.517797,0.24495 0.165882,0.20929 0.165882,0.48059 0,0.19068 -0.09147,0.38602 -0.09147,0.19534 -0.252697,0.29456 -0.15968,0.0992 -0.356568,0.0992 -0.32091,0 -0.510046,-0.25579 -0.15968,-0.21549 -0.15968,-0.48369 0,-0.19534 0.09612,-0.38758 0.09767,-0.193785 0.255798,-0.285252 0.15813,-0.09302 0.334864,-0.09302 z m -0.04806,0.100769 q -0.08216,0 -0.165881,0.04961 -0.08216,0.04806 -0.133325,0.170531 -0.05116,0.12247 -0.05116,0.31471 0,0.31006 0.122473,0.53485 0.124024,0.22479 0.325562,0.22479 0.150378,0 0.248047,-0.12402 0.09767,-0.12402 0.09767,-0.42633 0,-0.37827 -0.162781,-0.59531 -0.11007,-0.148831 -0.280603,-0.148831 z"
         id="path9621" />
      <path
         d="m 27.65133,99.821478 v 0.860412 q 0,0.2465 0.01085,0.30231 0.0124,0.0543 0.03721,0.076 0.02635,0.0217 0.06046,0.0217 0.04806,0 0.10852,-0.0264 l 0.0217,0.0543 -0.42478,0.17518 h -0.06976 v -0.30075 q -0.182935,0.19844 -0.279053,0.2496 -0.09612,0.0511 -0.203088,0.0511 -0.119373,0 -0.20774,-0.0682 -0.08682,-0.0698 -0.120922,-0.17828 -0.03411,-0.10852 -0.03411,-0.30696 v -0.63407 q 0,-0.100769 -0.0217,-0.139526 -0.0217,-0.03876 -0.06511,-0.05891 -0.04186,-0.0217 -0.153479,-0.02015 v -0.05736 h 0.497644 v 0.950332 q 0,0.19844 0.06821,0.26045 0.06976,0.062 0.167431,0.062 0.06666,0 0.150379,-0.0419 0.08527,-0.0419 0.201538,-0.15968 v -0.8046 q 0,-0.120924 -0.04496,-0.162782 -0.04341,-0.04341 -0.182934,-0.04651 v -0.05736 z"
         id="path9623" />
      <path
         d="m 28.406323,99.35484 v 0.466638 h 0.331763 v 0.108521 h -0.331763 v 0.920871 q 0,0.13798 0.03876,0.18604 0.04031,0.0481 0.102319,0.0481 0.05116,0 0.09922,-0.031 0.04806,-0.0326 0.07441,-0.0946 h 0.06046 q -0.05426,0.15193 -0.153479,0.22945 -0.09922,0.076 -0.204638,0.076 -0.07131,0 -0.139527,-0.0388 -0.06821,-0.0403 -0.100769,-0.11317 -0.03256,-0.0744 -0.03256,-0.22789 v -0.954981 h -0.224792 v -0.05116 q 0.08527,-0.03411 0.173632,-0.114722 0.08992,-0.08217 0.159681,-0.193786 0.03566,-0.05891 0.09922,-0.215491 z"
         id="path9625" />
    </g>
    <g
       aria-label="trig out"
       id="text9484"
       style="font-size:3.35696px;font-family:serif;-inkscape-font-specification:'serif, Normal';stroke-width:0.279746">
      <path
         d="m 18.30789,112.32644 v 0.49338 h 0.350776 v 0.11474 H 18.30789 v 0.97365 q 0,0.14588 0.04098,0.1967 0.04262,0.0508 0.108184,0.0508 0.05409,0 0.104905,-0.0328 0.05081,-0.0344 0.07868,-0.1 h 0.06393 q -0.05737,0.16064 -0.162275,0.24259 -0.104905,0.0803 -0.216367,0.0803 -0.0754,0 -0.147522,-0.041 -0.07212,-0.0426 -0.106544,-0.11965 -0.03442,-0.0787 -0.03442,-0.24096 v -1.00971 h -0.237676 v -0.0541 q 0.09015,-0.0361 0.183584,-0.1213 0.09507,-0.0869 0.168832,-0.20489 0.0377,-0.0623 0.104905,-0.22784 z"
         id="path9628" />
      <path
         d="m 19.243839,112.77556 v 0.33767 q 0.188501,-0.33767 0.386837,-0.33767 0.09015,0 0.149162,0.0557 0.05901,0.0541 0.05901,0.12622 0,0.0639 -0.04262,0.10818 -0.04262,0.0443 -0.101627,0.0443 -0.05737,0 -0.129492,-0.0557 -0.07048,-0.0574 -0.104905,-0.0574 -0.02951,0 -0.06393,0.0328 -0.07376,0.0672 -0.15244,0.22128 v 0.71959 q 0,0.12457 0.03114,0.1885 0.02131,0.0443 0.0754,0.0738 0.05409,0.0295 0.155719,0.0295 v 0.059 h -0.768757 v -0.059 q 0.11474,0 0.17047,-0.0361 0.04098,-0.0262 0.05737,-0.0836 0.0082,-0.0279 0.0082,-0.159 v -0.58189 q 0,-0.26227 -0.01147,-0.31144 -0.0098,-0.0508 -0.03934,-0.0738 -0.02787,-0.0229 -0.07048,-0.0229 -0.05081,0 -0.11474,0.0246 l -0.01639,-0.059 0.454042,-0.18359 z"
         id="path9630" />
      <path
         d="m 20.304363,111.99042 q 0.06884,0 0.116379,0.0492 0.04917,0.0475 0.04917,0.11638 0,0.0688 -0.04917,0.11802 -0.04753,0.0492 -0.116379,0.0492 -0.06884,0 -0.118018,-0.0492 -0.04917,-0.0492 -0.04917,-0.11802 0,-0.0688 0.04753,-0.11638 0.04917,-0.0492 0.119657,-0.0492 z m 0.136049,0.78514 v 1.20641 q 0,0.14097 0.01967,0.1885 0.02131,0.0459 0.06065,0.0689 0.04098,0.0229 0.147522,0.0229 v 0.059 h -0.729417 v -0.059 q 0.109822,0 0.147523,-0.0213 0.0377,-0.0213 0.05901,-0.0705 0.02295,-0.0492 0.02295,-0.1885 v -0.57861 q 0,-0.24424 -0.01475,-0.31636 -0.01147,-0.0525 -0.03606,-0.0721 -0.02459,-0.0213 -0.06721,-0.0213 -0.04589,0 -0.111461,0.0246 l -0.02295,-0.059 0.452403,-0.18359 z"
         id="path9632" />
      <path
         d="m 21.256704,113.7738 q -0.137688,-0.0672 -0.211449,-0.18686 -0.07376,-0.1213 -0.07376,-0.26718 0,-0.22292 0.167193,-0.38356 0.168831,-0.16064 0.431094,-0.16064 0.214727,0 0.372085,0.10491 h 0.317993 q 0.07048,0 0.08196,0.005 0.01147,0.003 0.01639,0.0131 0.0098,0.0148 0.0098,0.0525 0,0.0426 -0.0082,0.059 -0.0049,0.008 -0.01803,0.0131 -0.01147,0.005 -0.08196,0.005 H 22.0648 q 0.09179,0.11802 0.09179,0.3016 0,0.20981 -0.160636,0.35898 -0.160636,0.14916 -0.431094,0.14916 -0.111461,0 -0.22784,-0.0328 -0.07212,0.0623 -0.09835,0.10983 -0.02459,0.0459 -0.02459,0.0787 0,0.0279 0.02623,0.0541 0.02787,0.0262 0.106545,0.0377 0.0459,0.007 0.229479,0.0115 0.337663,0.008 0.437651,0.0229 0.15244,0.0213 0.242593,0.1131 0.09179,0.0918 0.09179,0.2262 0,0.18522 -0.173748,0.3475 -0.255706,0.23931 -0.667131,0.23931 -0.316354,0 -0.53436,-0.1426 -0.122935,-0.082 -0.122935,-0.17047 0,-0.0393 0.01803,-0.0787 0.02787,-0.0607 0.11474,-0.16883 0.01147,-0.0148 0.167193,-0.17703 -0.08524,-0.0508 -0.121297,-0.0901 -0.03442,-0.041 -0.03442,-0.0918 0,-0.0574 0.0459,-0.13441 0.04753,-0.077 0.216367,-0.21801 z m 0.28521,-0.91956 q -0.121296,0 -0.203253,0.0967 -0.08196,0.0967 -0.08196,0.29669 0,0.25898 0.111461,0.40159 0.08524,0.10818 0.216367,0.10818 0.124575,0 0.204893,-0.0934 0.08032,-0.0934 0.08032,-0.29341 0,-0.26062 -0.1131,-0.40814 -0.0836,-0.10819 -0.214728,-0.10819 z m -0.301602,1.46703 q -0.07704,0.0836 -0.116379,0.15572 -0.03934,0.0721 -0.03934,0.13277 0,0.0787 0.09507,0.13769 0.163914,0.10163 0.473712,0.10163 0.295045,0 0.434372,-0.10491 0.140966,-0.10326 0.140966,-0.22128 0,-0.0852 -0.0836,-0.1213 -0.08524,-0.0361 -0.337663,-0.0426 -0.368807,-0.01 -0.567143,-0.0377 z"
         id="path9634" />
      <path
         d="m 24.10717,112.77556 q 0.340941,0 0.547473,0.25899 0.175388,0.22128 0.175388,0.50813 0,0.20162 -0.09671,0.40815 -0.09671,0.20653 -0.26718,0.31143 -0.168831,0.10491 -0.377002,0.10491 -0.339302,0 -0.539277,-0.27046 -0.168832,-0.22784 -0.168832,-0.51141 0,-0.20653 0.101627,-0.40979 0.103266,-0.20489 0.270458,-0.3016 0.167193,-0.0983 0.354055,-0.0983 z m -0.05081,0.10655 q -0.08687,0 -0.175388,0.0525 -0.08687,0.0508 -0.140966,0.18031 -0.05409,0.12949 -0.05409,0.33274 0,0.32783 0.129493,0.56551 0.131131,0.23767 0.344219,0.23767 0.158997,0 0.262263,-0.13113 0.103265,-0.13113 0.103265,-0.45076 0,-0.39995 -0.172109,-0.62943 -0.116379,-0.15736 -0.296685,-0.15736 z"
         id="path9636" />
      <path
         d="m 26.367545,112.81982 v 0.90972 q 0,0.26063 0.01147,0.31964 0.01311,0.0574 0.03934,0.0803 0.02786,0.0229 0.06393,0.0229 0.05081,0 0.11474,-0.0279 l 0.02295,0.0574 -0.449124,0.18522 h -0.07376 v -0.31799 q -0.193418,0.20981 -0.295045,0.2639 -0.101627,0.0541 -0.214727,0.0541 -0.126214,0 -0.219645,-0.0721 -0.09179,-0.0738 -0.127853,-0.1885 -0.03606,-0.11474 -0.03606,-0.32455 v -0.67041 q 0,-0.10655 -0.02295,-0.14752 -0.02295,-0.041 -0.06884,-0.0623 -0.04426,-0.023 -0.162275,-0.0213 v -0.0606 h 0.526164 v 1.00479 q 0,0.20981 0.07212,0.27538 0.07376,0.0656 0.177028,0.0656 0.07048,0 0.158996,-0.0443 0.09015,-0.0443 0.213088,-0.16883 v -0.85072 q 0,-0.12785 -0.04753,-0.17211 -0.0459,-0.0459 -0.193418,-0.0492 v -0.0606 z"
         id="path9638" />
      <path
         d="m 27.165806,112.32644 v 0.49338 h 0.350776 v 0.11474 h -0.350776 v 0.97365 q 0,0.14588 0.04098,0.1967 0.04262,0.0508 0.108184,0.0508 0.05409,0 0.104905,-0.0328 0.05081,-0.0344 0.07868,-0.1 h 0.06393 q -0.05737,0.16064 -0.162275,0.24259 -0.104905,0.0803 -0.216367,0.0803 -0.0754,0 -0.147522,-0.041 -0.07212,-0.0426 -0.106544,-0.11965 -0.03442,-0.0787 -0.03442,-0.24096 v -1.00971 h -0.237676 v -0.0541 q 0.09015,-0.0361 0.183584,-0.1213 0.09507,-0.0869 0.168831,-0.20489 0.0377,-0.0623 0.104905,-0.22784 z"
         id="path9640" />
    </g>
    <g
       aria-label="reset"
       id="text9488"
       style="font-size:3.175px;font-family:serif;-inkscape-font-specification:'serif, Normal';stroke-width:0.264583">
      <path
         d="m 4.8238494,112.79277 v 0.31936 q 0.1782837,-0.31936 0.3658691,-0.31936 0.085266,0 0.1410767,0.0527 0.05581,0.0512 0.05581,0.11938 0,0.0605 -0.040308,0.10232 -0.040308,0.0419 -0.096118,0.0419 -0.05426,0 -0.1224731,-0.0527 -0.066663,-0.0543 -0.099219,-0.0543 -0.027905,0 -0.060461,0.031 -0.069763,0.0636 -0.1441772,0.20929 v 0.68058 q 0,0.11782 0.029456,0.17828 0.020154,0.0419 0.071313,0.0698 0.05116,0.0279 0.1472779,0.0279 v 0.0558 H 4.3448089 v -0.0558 q 0.1085205,0 0.1612304,-0.0341 0.038757,-0.0248 0.05426,-0.0791 0.00775,-0.0264 0.00775,-0.15038 v -0.55035 q 0,-0.24805 -0.010852,-0.29456 -0.0093,-0.0481 -0.037207,-0.0698 -0.026355,-0.0217 -0.066663,-0.0217 -0.048059,0 -0.1085205,0.0233 l -0.015503,-0.0558 0.4294312,-0.17364 z"
         id="path9602" />
      <path
         d="m 5.7044157,113.36948 q -0.00155,0.31626 0.153479,0.4961 0.1550293,0.17983 0.3643189,0.17983 0.1395263,0 0.2418457,-0.076 0.1038696,-0.0775 0.1736328,-0.26355 l 0.048059,0.031 q -0.032556,0.21239 -0.1891358,0.38758 -0.1565796,0.17363 -0.3922241,0.17363 -0.2557983,0 -0.4387329,-0.19844 -0.1813843,-0.19999 -0.1813843,-0.5364 0,-0.36432 0.1860352,-0.56741 0.1875854,-0.20464 0.4697387,-0.20464 0.2387452,0 0.3922242,0.15813 0.153479,0.15658 0.153479,0.42013 z m 0,-0.0899 h 0.6573242 q -0.00775,-0.13643 -0.032556,-0.19224 -0.038757,-0.0868 -0.116272,-0.13643 -0.075964,-0.0496 -0.1596802,-0.0496 -0.1286743,0 -0.2309936,0.10077 -0.1007691,0.0992 -0.1178223,0.27751 z"
         id="path9604" />
      <path
         d="m 7.7926603,112.79277 v 0.48369 h -0.05116 q -0.058911,-0.22789 -0.1519287,-0.31005 -0.091467,-0.0822 -0.2340942,-0.0822 -0.1085205,0 -0.1751831,0.0574 -0.066663,0.0574 -0.066663,0.12713 0,0.0868 0.049609,0.14882 0.048059,0.0636 0.1953369,0.13488 l 0.2263428,0.11007 q 0.3147094,0.15348 0.3147094,0.40463 0,0.19378 -0.1472778,0.31316 -0.1457275,0.11782 -0.3271118,0.11782 -0.1302246,0 -0.2976563,-0.0465 -0.05116,-0.0155 -0.083716,-0.0155 -0.035657,0 -0.055811,0.0403 h -0.05116 v -0.50694 h 0.05116 q 0.043408,0.21704 0.1658813,0.32711 0.1224732,0.11007 0.2744019,0.11007 0.1069702,0 0.1736328,-0.062 0.068213,-0.0636 0.068213,-0.15193 0,-0.10697 -0.075964,-0.17983 -0.074414,-0.0729 -0.2992065,-0.18449 -0.2247925,-0.11162 -0.2945557,-0.20154 -0.069763,-0.0884 -0.069763,-0.22324 0,-0.17518 0.1193726,-0.293 0.1209228,-0.11783 0.3116089,-0.11783 0.083716,0 0.2030884,0.0357 0.079065,0.0233 0.1054199,0.0233 0.024805,0 0.038757,-0.0109 0.013953,-0.0108 0.032556,-0.0481 z"
         id="path9606" />
      <path
         d="m 8.3492153,113.36948 q -0.00155,0.31626 0.153479,0.4961 0.1550293,0.17983 0.3643189,0.17983 0.1395263,0 0.2418457,-0.076 0.1038696,-0.0775 0.1736328,-0.26355 l 0.048059,0.031 q -0.032556,0.21239 -0.1891357,0.38758 -0.1565796,0.17363 -0.3922241,0.17363 -0.2557983,0 -0.4387329,-0.19844 -0.1813843,-0.19999 -0.1813843,-0.5364 0,-0.36432 0.1860352,-0.56741 0.1875854,-0.20464 0.4697387,-0.20464 0.2387451,0 0.3922241,0.15813 0.153479,0.15658 0.153479,0.42013 z m 0,-0.0899 h 0.6573242 q -0.00775,-0.13643 -0.032556,-0.19224 -0.038757,-0.0868 -0.116272,-0.13643 -0.075964,-0.0496 -0.1596802,-0.0496 -0.1286743,0 -0.2309936,0.10077 -0.1007691,0.0992 -0.1178223,0.27751 z"
         id="path9608" />
      <path
         d="m 9.9320645,112.36799 v 0.46664 h 0.3317625 v 0.10852 H 9.9320645 v 0.92088 q 0,0.13797 0.038757,0.18603 0.040307,0.0481 0.1023192,0.0481 0.05116,0 0.09922,-0.031 0.04806,-0.0326 0.07441,-0.0946 h 0.06046 q -0.05426,0.15193 -0.153479,0.22944 -0.09922,0.076 -0.2046383,0.076 -0.071313,0 -0.1395263,-0.0388 -0.068213,-0.0403 -0.1007691,-0.11317 -0.032556,-0.0744 -0.032556,-0.2279 v -0.95498 H 9.4514737 v -0.0512 q 0.085266,-0.0341 0.1736328,-0.11472 0.089917,-0.0822 0.1596802,-0.19379 0.035657,-0.0589 0.099219,-0.21549 z"
         id="path9610" />
    </g>
  </g>
  <g
     inkscape:groupmode="layer"
     id="layer2"
     inkscape:label="components"
     style="display:none">
    <circle
       cx="22.610044"
       cy="119.4645"
       r="2.9475"
       fill="#0000ff"
       id="circle13677"
       inkscape:label="trig"
       style="display:inline;stroke-width:0.131" />
    <circle
       cx="14.916296"
       cy="45.577568"
       r="5.5019999"
       fill="#ff0000"
       id="circle13669"
       inkscape:label="bpm"
       style="display:inline;fill:#ff0000;stroke-width:0.131" />
    <circle
       cx="22.610044"
       cy="106.23538"
       r="2.9475"
       fill="#0000ff"
       id="circle9595"
       inkscape:label="ramp"
       style="display:inline;stroke-width:0.131" />
    <circle
       cx="7.8535342"
       cy="119.46415"
       r="2.9475"
       fill="#00ff00"
       id="circle13675"
       inkscape:label="reset"
       style="display:inline;stroke-width:0.131" />
  </g>
</svg>
