<?xml version="1.0" encoding="UTF-8" standalone="no"?>
<!-- Created with Inkscape (http://www.inkscape.org/) -->

<svg
   width="30.48mm"
   height="128.5mm"
   viewBox="0 0 30.479999 128.5"
   version="1.1"
   id="svg20633"
   inkscape:version="1.2.1 (9c6d41e, 2022-07-14)"
   sodipodi:docname="SuperSaw.svg"
   xmlns:inkscape="http://www.inkscape.org/namespaces/inkscape"
   xmlns:sodipodi="http://sodipodi.sourceforge.net/DTD/sodipodi-0.dtd"
   xmlns="http://www.w3.org/2000/svg"
   xmlns:svg="http://www.w3.org/2000/svg">
  <sodipodi:namedview
     id="namedview20635"
     pagecolor="#ffffff"
     bordercolor="#000000"
     borderopacity="0.25"
     inkscape:showpageshadow="2"
     inkscape:pageopacity="0.0"
     inkscape:pagecheckerboard="0"
     inkscape:deskcolor="#d1d1d1"
     inkscape:document-units="mm"
     showgrid="false"
     inkscape:zoom="2.2576626"
     inkscape:cx="48.722958"
     inkscape:cy="177.61733"
     inkscape:window-width="1920"
     inkscape:window-height="1052"
     inkscape:window-x="0"
     inkscape:window-y="28"
     inkscape:window-maximized="0"
     inkscape:current-layer="layer3" />
  <defs
     id="defs20630" />
  <g
     inkscape:groupmode="layer"
     id="layer3"
     inkscape:label="Layer 1"
     transform="scale(0.131)"
     style="display:inline">
    <rect
       x="1.0178401"
       y="1.0178401"
       width="346.96432"
       height="979.1192"
       stroke="#b3b3b3"
       stroke-width="2.03568"
       id="rect13657"
       style="display:none" />
    <path
       id="rect13631"
       style="display:inline;fill:#adfff9;fill-opacity:1;stroke-width:0.837007"
       inkscape:label="rect13631"
       d="M 1.1053896,1.1053896 V 979.15398 H 233.86668 V 1.1053896 Z" />
    <path
       d="m 146.744,338.234 c -0.696,0 -1.362,-0.078 -1.998,-0.234 -0.624,-0.156 -1.164,-0.366 -1.62,-0.63 l 0.216,-2.412 c 0.54,0.336 1.104,0.6 1.692,0.792 0.6,0.18 1.152,0.27 1.656,0.27 0.576,0 1.044,-0.12 1.404,-0.36 0.36,-0.24 0.54,-0.558 0.54,-0.954 0,-0.324 -0.12,-0.57 -0.36,-0.738 -0.24,-0.18 -0.618,-0.372 -1.134,-0.576 l -0.432,-0.18 c -0.06,-0.024 -0.126,-0.048 -0.198,-0.072 -0.072,-0.036 -0.156,-0.072 -0.252,-0.108 -0.672,-0.276 -1.212,-0.534 -1.62,-0.774 -0.408,-0.252 -0.762,-0.6 -1.062,-1.044 -0.288,-0.444 -0.432,-1.02 -0.432,-1.728 0,-1.152 0.39,-2.058 1.17,-2.718 0.78,-0.66 1.866,-0.99 3.258,-0.99 1.056,0 2.136,0.216 3.24,0.648 l -0.396,2.376 c -0.444,-0.252 -0.924,-0.45 -1.44,-0.594 -0.504,-0.144 -0.984,-0.216 -1.44,-0.216 -0.564,0 -1.002,0.114 -1.314,0.342 -0.312,0.216 -0.468,0.51 -0.468,0.882 0,0.324 0.108,0.576 0.324,0.756 0.216,0.18 0.564,0.372 1.044,0.576 l 0.738,0.288 c 0.696,0.264 1.272,0.522 1.728,0.774 0.456,0.252 0.846,0.618 1.17,1.098 0.324,0.468 0.486,1.08 0.486,1.836 0,1.164 -0.396,2.07 -1.188,2.718 -0.792,0.648 -1.896,0.972 -3.312,0.972 z m 7.83,-12.222 h 7.29 v 2.268 h -4.716 v 2.394 h 3.906 v 2.196 h -3.906 v 2.862 h 4.716 V 338 h -7.29 z m 10.805,0 h 2.61 v 9.72 h 4.32 V 338 h -6.93 z m 9.997,0 h 7.29 v 2.268 h -4.716 v 2.394 h 3.906 v 2.196 h -3.906 v 2.862 h 4.716 V 338 h -7.29 z m 16.227,12.222 c -1.92,0 -3.42,-0.516 -4.5,-1.548 -1.08,-1.032 -1.62,-2.49 -1.62,-4.374 0,-1.284 0.252,-2.418 0.756,-3.402 0.516,-0.984 1.242,-1.74 2.178,-2.268 0.936,-0.54 2.016,-0.81 3.24,-0.81 0.996,0 1.956,0.18 2.88,0.54 l -0.486,2.322 c -0.816,-0.372 -1.608,-0.558 -2.376,-0.558 -1.092,0 -1.956,0.36 -2.592,1.08 -0.636,0.708 -0.954,1.656 -0.954,2.844 0,1.212 0.336,2.154 1.008,2.826 0.672,0.672 1.602,1.008 2.79,1.008 0.78,0 1.536,-0.126 2.268,-0.378 l 0.396,2.214 c -0.876,0.336 -1.872,0.504 -2.988,0.504 z m 8.905,-9.954 h -3.276 v -2.268 h 9.144 v 2.268 h -3.24 V 338 h -2.628 z"
       fill="#000000"
       id="path13659"
       style="display:none" />
    <path
       d="m 143.24,670.012 h 2.772 l 2.088,8.622 2.142,-8.55 3.366,-0.252 2.268,9.054 2.106,-8.874 h 2.574 L 157.316,682 h -3.15 l -2.322,-9.486 -2.412,9.486 h -3.114 z m 20.528,0 h 2.61 V 682 h -2.61 z m 8.42,12.006 c -0.852,0 -1.488,-0.006 -1.908,-0.018 v -11.988 c 0.516,-0.012 1.278,-0.018 2.286,-0.018 1.02,0 1.782,0.006 2.286,0.018 1.176,0.012 2.196,0.252 3.06,0.72 0.876,0.456 1.548,1.11 2.016,1.962 0.48,0.852 0.72,1.848 0.72,2.988 0,1.248 -0.276,2.346 -0.828,3.294 -0.54,0.948 -1.308,1.686 -2.304,2.214 -0.984,0.528 -2.13,0.798 -3.438,0.81 -0.42,0.012 -1.05,0.018 -1.89,0.018 z m 1.872,-2.286 c 1.212,0 2.166,-0.354 2.862,-1.062 0.696,-0.708 1.044,-1.68 1.044,-2.916 0,-1.116 -0.3,-1.974 -0.9,-2.574 -0.588,-0.6 -1.44,-0.9 -2.556,-0.9 h -1.62 v 7.452 z m 11.92,-7.452 h -3.276 v -2.268 h 9.144 v 2.268 h -3.24 V 682 h -2.628 z m 8.934,-2.268 h 2.628 v 4.644 h 5.094 v -4.644 h 2.646 V 682 h -2.646 v -5.112 h -5.094 V 682 h -2.628 z"
       fill="#000000"
       id="path13661"
       style="display:none" />
    <path
       d="m 46.4624,70.024 h 5.544 l 4.176,17.244 4.284,-17.1 6.732,-0.504 4.536,18.108 4.212,-17.748 h 5.148 L 74.6144,94 h -6.3 L 63.6704,75.028 58.8464,94 h -6.228 z m 45.3159,0 h 6.264 L 106.934,94 h -5.4 l -1.9437,-5.472 h -9.432 L 88.3223,94 h -5.328 z m 6.264,14.04 -3.24,-9.18 -3.132,9.18 z m 10.0447,-14.04 h 5.76 l 5.688,18.288 5.652,-18.288 h 5.364 L 122.487,94 h -6.3 z m 27.848,0 h 14.58 v 4.536 h -9.432 v 4.788 h 7.812 v 4.392 h -7.812 v 5.724 h 9.432 V 94 h -14.58 z m 27.946,24.444 c -1.392,0 -2.724,-0.156 -3.996,-0.468 -1.248,-0.312 -2.328,-0.732 -3.24,-1.26 l 0.432,-4.824 c 1.08,0.672 2.208,1.2 3.384,1.584 1.2,0.36 2.304,0.54 3.312,0.54 1.152,0 2.088,-0.24 2.808,-0.72 0.72,-0.48 1.08,-1.116 1.08,-1.908 0,-0.648 -0.24,-1.14 -0.72,-1.476 -0.48,-0.36 -1.236,-0.744 -2.268,-1.152 l -0.864,-0.36 c -0.12,-0.048 -0.252,-0.096 -0.396,-0.144 -0.144,-0.072 -0.312,-0.144 -0.504,-0.216 -1.344,-0.552 -2.424,-1.068 -3.24,-1.548 -0.816,-0.504 -1.524,-1.2 -2.124,-2.088 -0.576,-0.888 -0.864,-2.04 -0.864,-3.456 0,-2.304 0.78,-4.116 2.34,-5.436 1.56,-1.32 3.732,-1.98 6.516,-1.98 2.112,0 4.272,0.432 6.48,1.296 l -0.792,4.752 c -0.888,-0.504 -1.848,-0.9 -2.88,-1.188 -1.008,-0.288 -1.968,-0.432 -2.88,-0.432 -1.128,0 -2.004,0.228 -2.628,0.684 -0.624,0.432 -0.936,1.02 -0.936,1.764 0,0.648 0.216,1.152 0.648,1.512 0.432,0.36 1.128,0.744 2.088,1.152 l 1.476,0.576 c 1.392,0.528 2.544,1.044 3.456,1.548 0.912,0.504 1.692,1.236 2.34,2.196 0.648,0.936 0.972,2.16 0.972,3.672 0,2.328 -0.792,4.14 -2.376,5.436 -1.584,1.296 -3.792,1.944 -6.624,1.944 z m 15.66,-24.444 h 14.58 v 4.536 h -9.432 v 4.788 h 7.812 v 4.392 h -7.812 v 5.724 h 9.432 V 94 h -14.58 z m 27.074,4.536 h -6.552 v -4.536 h 18.288 v 4.536 h -6.48 V 94 h -5.256 z m 38.432,19.908 c -2.352,0 -4.428,-0.516 -6.228,-1.548 -1.8,-1.032 -3.204,-2.484 -4.212,-4.356 -0.984,-1.872 -1.476,-4.02 -1.476,-6.444 0,-2.448 0.492,-4.608 1.476,-6.48 0.984,-1.872 2.376,-3.324 4.176,-4.356 1.8,-1.032 3.888,-1.548 6.264,-1.548 2.352,0 4.428,0.516 6.228,1.548 1.8,1.008 3.192,2.436 4.176,4.284 0.984,1.848 1.476,3.984 1.476,6.408 0,2.472 -0.492,4.656 -1.476,6.552 -0.984,1.872 -2.376,3.336 -4.176,4.392 -1.8,1.032 -3.876,1.548 -6.228,1.548 z m 0,-4.572 c 1.968,0 3.54,-0.708 4.716,-2.124 1.2,-1.416 1.8,-3.3 1.8,-5.652 0,-1.536 -0.276,-2.892 -0.828,-4.068 -0.528,-1.2 -1.296,-2.112 -2.304,-2.736 -0.984,-0.648 -2.112,-0.972 -3.384,-0.972 -1.272,0 -2.412,0.324 -3.42,0.972 -0.984,0.624 -1.752,1.536 -2.304,2.736 -0.528,1.176 -0.792,2.532 -0.792,4.068 0,1.536 0.264,2.892 0.792,4.068 0.552,1.176 1.32,2.088 2.304,2.736 0.984,0.648 2.124,0.972 3.42,0.972 z m 25.055,4.572 c -1.392,0 -2.724,-0.156 -3.996,-0.468 -1.248,-0.312 -2.328,-0.732 -3.24,-1.26 l 0.432,-4.824 c 1.08,0.672 2.208,1.2 3.384,1.584 1.2,0.36 2.304,0.54 3.312,0.54 1.152,0 2.088,-0.24 2.808,-0.72 0.72,-0.48 1.08,-1.116 1.08,-1.908 0,-0.648 -0.24,-1.14 -0.72,-1.476 -0.48,-0.36 -1.236,-0.744 -2.268,-1.152 l -0.864,-0.36 c -0.12,-0.048 -0.252,-0.096 -0.396,-0.144 -0.144,-0.072 -0.312,-0.144 -0.504,-0.216 -1.344,-0.552 -2.424,-1.068 -3.24,-1.548 -0.816,-0.504 -1.524,-1.2 -2.124,-2.088 -0.576,-0.888 -0.864,-2.04 -0.864,-3.456 0,-2.304 0.78,-4.116 2.34,-5.436 1.56,-1.32 3.732,-1.98 6.516,-1.98 2.112,0 4.272,0.432 6.48,1.296 l -0.792,4.752 c -0.888,-0.504 -1.848,-0.9 -2.88,-1.188 -1.008,-0.288 -1.968,-0.432 -2.88,-0.432 -1.128,0 -2.004,0.228 -2.628,0.684 -0.624,0.432 -0.936,1.02 -0.936,1.764 0,0.648 0.216,1.152 0.648,1.512 0.432,0.36 1.128,0.744 2.088,1.152 l 1.476,0.576 c 1.392,0.528 2.544,1.044 3.456,1.548 0.912,0.504 1.692,1.236 2.34,2.196 0.648,0.936 0.972,2.16 0.972,3.672 0,2.328 -0.792,4.14 -2.376,5.436 -1.584,1.296 -3.792,1.944 -6.624,1.944 z m 26.857,0 c -3.84,0 -6.84,-1.032 -9,-3.096 -2.16,-2.064 -3.24,-4.98 -3.24,-8.748 0,-2.568 0.504,-4.836 1.512,-6.804 1.032,-1.968 2.484,-3.48 4.356,-4.536 1.872,-1.08 4.032,-1.62 6.48,-1.62 1.992,0 3.912,0.36 5.76,1.08 l -0.972,4.644 c -1.632,-0.744 -3.216,-1.116 -4.752,-1.116 -2.184,0 -3.912,0.72 -5.184,2.16 -1.272,1.416 -1.908,3.312 -1.908,5.688 0,2.424 0.672,4.308 2.016,5.652 1.344,1.344 3.204,2.016 5.58,2.016 1.56,0 3.072,-0.252 4.536,-0.756 l 0.792,4.428 c -1.752,0.672 -3.744,1.008 -5.976,1.008 z"
       fill="#000000"
       id="path13667"
       style="display:none" />
    <g
       aria-label="spread"
       id="text17328"
       style="font-style:italic;font-weight:500;font-size:37.7015px;font-family:'Avenir Next';-inkscape-font-specification:'Avenir Next, Medium Italic';fill:#1a1a1a;stroke-width:2.01972"
       transform="translate(-3.2015242)">
      <path
         d="m 75.704895,285.36307 q -0.527821,-0.86714 -1.432657,-1.43266 -0.904836,-0.56552 -2.337493,-0.56552 -0.640925,0 -1.281851,0.1508 -0.640925,0.11311 -1.206448,0.41472 -0.527821,0.26391 -0.867134,0.75403 -0.339314,0.49012 -0.339314,1.16875 0,1.13104 0.829433,1.62116 0.829433,0.49012 2.375195,0.90484 2.563702,0.75403 3.920956,1.96048 1.394955,1.16874 1.394955,3.35543 0,1.47036 -0.640925,2.5637 -0.640926,1.09334 -1.696568,1.80967 -1.01794,0.71633 -2.337493,1.05565 -1.319552,0.37701 -2.676806,0.37701 -2.563702,0 -4.448777,-0.94254 -1.847374,-0.94253 -2.865314,-2.5637 l 2.827612,-1.84737 q 0.603224,1.09334 1.771971,1.77197 1.206448,0.67862 2.714508,0.67862 1.583463,0 2.752209,-0.64092 1.168747,-0.67863 1.168747,-1.99818 0,-1.16875 -0.942538,-1.77197 -0.904836,-0.60322 -2.752209,-1.20645 -1.055642,-0.33931 -1.922777,-0.71633 -0.867134,-0.37701 -1.50806,-0.94253 -0.640925,-0.56553 -1.01794,-1.31956 -0.339314,-0.75403 -0.339314,-1.84737 0,-1.31955 0.603224,-2.33749 0.603224,-1.05565 1.621165,-1.77197 1.01794,-0.71633 2.337493,-1.09335 1.357254,-0.37701 2.789911,-0.37701 2.073582,0 3.732448,0.79173 1.658866,0.79173 2.488299,2.22439 z"
         id="path20037" />
      <path
         d="m 86.562864,283.93041 q 0.980239,-1.43266 2.714508,-2.37519 1.734269,-0.94254 3.807851,-0.94254 1.771971,0 3.204628,0.56552 1.432657,0.56552 2.450597,1.58346 1.017941,1.01794 1.583462,2.4506 0.56552,1.39496 0.56552,3.12923 0,2.29979 -0.79173,4.33567 -0.754028,1.99818 -2.111282,3.50624 -1.357254,1.50806 -3.242329,2.37519 -1.847373,0.86714 -4.03406,0.86714 -2.186687,0 -3.807852,-0.90484 -1.583463,-0.90483 -2.412896,-2.4883 h -0.0754 l -2.073582,11.95138 h -3.50624 l 4.750389,-26.91887 h 3.393135 l -0.490119,2.86531 z m 10.707226,4.75039 q 0,-2.18669 -1.281851,-3.65705 -1.281851,-1.50806 -3.694747,-1.50806 -1.470359,0 -2.789911,0.64093 -1.281851,0.60322 -2.26209,1.69657 -0.942538,1.05564 -1.50806,2.4883 -0.527821,1.43265 -0.527821,3.01612 0,1.13104 0.339313,2.11128 0.377015,0.94254 1.055642,1.62116 0.678627,0.67863 1.621165,1.09335 0.980239,0.37701 2.148985,0.37701 1.545762,0 2.827613,-0.60322 1.281851,-0.64093 2.186687,-1.69657 0.904836,-1.05564 1.394955,-2.4883 0.49012,-1.43265 0.49012,-3.09152 z"
         id="path20039" />
      <path
         d="m 106.65776,284.94835 q 0.15081,-0.71633 0.30161,-1.84737 0.18851,-1.13105 0.26391,-2.03588 h 3.31774 q -0.0377,0.26391 -0.0754,0.67862 -0.0377,0.37702 -0.1131,0.82944 -0.0377,0.41471 -0.11311,0.82943 -0.0377,0.37701 -0.0754,0.67863 h 0.0754 q 0.94254,-1.58347 2.3375,-2.526 1.43265,-0.98024 3.24233,-0.98024 0.82943,0 1.39495,0.1508 l -0.60322,3.28003 q -0.75403,-0.1885 -1.54576,-0.1885 -1.28185,0 -2.26209,0.49012 -0.98024,0.45241 -1.69657,1.24415 -0.71633,0.79173 -1.16875,1.84737 -0.41471,1.01794 -0.60322,2.14898 l -1.65887,9.38768 h -3.46854 l 2.4506,-13.98726 z"
         id="path20041" />
      <path
         d="m 120.26791,291.05599 q -0.0377,0.18851 -0.0377,0.33932 0,0.1131 0,0.26391 0,1.05564 0.37701,1.96048 0.41472,0.86713 1.09335,1.54576 0.71633,0.64092 1.65886,1.01794 0.98024,0.33931 2.07359,0.33931 1.92277,0 3.28003,-0.75403 1.39495,-0.79173 2.33749,-1.96048 l 2.07358,1.96048 q -1.58346,1.80967 -3.61934,2.75221 -2.03588,0.90484 -4.41108,0.90484 -1.77197,0 -3.31773,-0.52782 -1.50806,-0.52782 -2.6391,-1.54577 -1.09335,-1.01794 -1.73427,-2.48829 -0.60323,-1.47036 -0.60323,-3.35544 0,-2.22439 0.79173,-4.22257 0.79174,-1.99818 2.18669,-3.46853 1.39496,-1.50806 3.31773,-2.3752 1.92278,-0.86713 4.14717,-0.86713 3.43083,0 5.42901,1.88507 1.99818,1.84738 1.99818,5.20281 0,0.52782 -0.1131,1.54576 -0.0754,0.98024 -0.26391,1.84737 z m 11.04654,-2.5637 q 0.0377,-0.26391 0.0377,-0.56552 0.0377,-0.30161 0.0377,-0.56552 0,-1.73427 -1.13104,-2.86532 -1.13105,-1.16874 -3.28003,-1.16874 -1.28185,0 -2.3375,0.45241 -1.05564,0.45242 -1.88507,1.16875 -0.79173,0.71633 -1.35725,1.65887 -0.52783,0.94253 -0.75403,1.88507 z"
         id="path20043" />
      <path
         d="m 150.69295,287.77596 q 0.0754,-0.52782 0.1131,-0.82943 0.0377,-0.30161 0.0377,-0.56552 0,-1.58346 -0.98024,-2.26209 -0.98023,-0.71633 -2.78991,-0.71633 -1.43265,0 -2.86531,0.56552 -1.43266,0.56552 -2.4883,1.39496 l -1.43266,-2.3375 q 1.43266,-1.13104 3.35544,-1.77197 1.92277,-0.67862 3.92095,-0.67862 1.28185,0 2.4506,0.30161 1.20645,0.26391 2.11128,0.90484 0.94254,0.60322 1.50806,1.62116 0.56553,1.01794 0.56553,2.4506 0,0.33931 -0.0377,0.90483 -0.0377,0.52782 -0.11311,0.90484 l -1.31955,7.23869 q -0.18851,1.05564 -0.30161,2.18668 -0.11311,1.09335 -0.11311,1.84738 h -3.20463 q 0,-0.56552 0.0377,-1.20645 0.0754,-0.64093 0.1885,-1.28185 h -0.0754 q -1.28185,1.50806 -2.78991,2.18669 -1.50806,0.67862 -3.54394,0.67862 -0.90484,0 -1.88508,-0.22621 -0.98024,-0.22621 -1.80967,-0.75403 -0.79173,-0.56552 -1.31955,-1.47035 -0.52782,-0.90484 -0.52782,-2.26209 0,-2.18669 1.20645,-3.50624 1.20644,-1.35726 3.09152,-2.07359 1.92278,-0.75403 4.29797,-0.98024 2.37519,-0.26391 4.71269,-0.26391 z m -0.94254,2.56371 q -1.47036,0 -3.05382,0.1508 -1.58346,0.11311 -2.90302,0.52782 -1.28185,0.37702 -2.11128,1.13105 -0.82943,0.75403 -0.82943,1.96048 0,0.75403 0.26391,1.24415 0.30161,0.45241 0.75403,0.75403 0.49012,0.30161 1.05564,0.41471 0.60322,0.11311 1.20645,0.11311 1.16874,0 2.18668,-0.37702 1.01794,-0.41472 1.77197,-1.09334 0.75403,-0.67863 1.24415,-1.58347 0.52782,-0.90483 0.71633,-1.92277 l 0.26391,-1.31955 z"
         id="path20045" />
      <path
         d="m 158.1201,291.65922 q 0,-2.29979 0.75403,-4.29797 0.75403,-2.03588 2.11128,-3.54394 1.35725,-1.50806 3.20463,-2.3752 1.88507,-0.86713 4.10946,-0.86713 2.18669,0 3.77015,0.90483 1.62117,0.90484 2.4506,2.526 h 0.0754 l 2.3752,-13.57254 h 3.50624 l -5.052,28.50234 h -3.39314 l 0.49012,-2.86532 h -0.0754 q -0.98024,1.47036 -2.71451,2.4129 -1.73427,0.90484 -3.80785,0.90484 -1.77197,0 -3.20463,-0.56553 -1.43266,-0.56552 -2.4506,-1.58346 -1.01794,-1.01794 -1.58346,-2.4129 -0.56552,-1.43265 -0.56552,-3.16692 z m 3.61934,-0.33932 q 0,2.18669 1.28185,3.69475 1.28185,1.47036 3.69475,1.47036 1.47036,0 2.75221,-0.60322 1.31955,-0.64093 2.26209,-1.69657 0.98024,-1.09334 1.50806,-2.526 0.56552,-1.43266 0.56552,-3.01612 0,-1.13105 -0.37701,-2.07358 -0.33932,-0.98024 -1.01794,-1.65887 -0.67863,-0.67863 -1.62117,-1.05564 -0.94254,-0.41472 -2.11128,-0.41472 -1.58347,0 -2.86532,0.64093 -1.28185,0.60322 -2.18668,1.65886 -0.90484,1.05564 -1.39496,2.526 -0.49012,1.43266 -0.49012,3.05382 z"
         id="path20047" />
    </g>
    <text
       xml:space="preserve"
       style="font-weight:bold;font-size:37.7015px;font-family:'Arial Hebrew';-inkscape-font-specification:'Arial Hebrew Bold';fill:#1a1a1a;stroke-width:2.01972"
       x="451.77637"
       y="283.59033"
       id="text17550"><tspan
         sodipodi:role="line"
         id="tspan17548"
         style="font-style:normal;font-variant:normal;font-weight:normal;font-stretch:normal;font-size:37.7015px;font-family:Avenir;-inkscape-font-specification:'Avenir, Normal';font-variant-ligatures:normal;font-variant-caps:normal;font-variant-numeric:normal;font-variant-east-asian:normal;stroke-width:2.01972"
         x="451.77637"
         y="283.59033" /></text>
    <g
       aria-label="voices"
       id="text17554"
       style="font-style:italic;font-weight:500;font-size:37.7015px;font-family:'Avenir Next';-inkscape-font-specification:'Avenir Next, Medium Italic';fill:#1a1a1a;stroke-width:2.01972">
      <path
         d="m 76.548345,619.8302 h -3.732448 l -3.619344,-17.87051 h 3.619344 l 2.488299,14.10036 h 0.0754 l 8.143524,-14.10036 h 3.732448 z"
         id="path20050" />
      <path
         d="m 96.077713,620.32032 q -1.847373,0 -3.393135,-0.56552 -1.545761,-0.56553 -2.676806,-1.58347 -1.131045,-1.05564 -1.771971,-2.48829 -0.640925,-1.43266 -0.640925,-3.16693 0,-2.22439 0.75403,-4.22257 0.791731,-1.99818 2.186687,-3.50624 1.432657,-1.54576 3.393135,-2.41289 1.998179,-0.90484 4.411075,-0.90484 1.847377,0 3.393137,0.56552 1.54576,0.56552 2.6768,1.58347 1.13105,1.01794 1.73427,2.45059 0.64093,1.39496 0.64093,3.12923 0,2.26209 -0.79173,4.29797 -0.75403,1.99818 -2.18669,3.54394 -1.39495,1.50806 -3.35543,2.4129 -1.960481,0.86713 -4.373377,0.86713 z M 103.241,609.53769 q 0,-1.09334 -0.37702,-2.03588 -0.33931,-0.94254 -1.01794,-1.62116 -0.64092,-0.71633 -1.62116,-1.09335 -0.942539,-0.41471 -2.111286,-0.41471 -1.545761,0 -2.827612,0.64092 -1.281851,0.64093 -2.224389,1.73427 -0.904836,1.05564 -1.432657,2.4883 -0.490119,1.39495 -0.490119,2.97842 0,2.26209 1.357254,3.73245 1.357254,1.43265 3.77015,1.43265 1.545761,0 2.827612,-0.60322 1.281847,-0.64093 2.186687,-1.69657 0.94254,-1.09334 1.43266,-2.526 0.52782,-1.43266 0.52782,-3.01612 z"
         id="path20052" />
      <path
         d="m 113.64655,619.8302 h -3.46854 l 3.12923,-17.87051 h 3.50624 z m 4.67499,-24.39287 q 0,0.94254 -0.64093,1.62116 -0.64092,0.67863 -1.58346,0.67863 -0.90484,0 -1.58346,-0.56552 -0.64093,-0.56552 -0.64093,-1.58346 0,-1.01794 0.67863,-1.65887 0.71633,-0.67863 1.62116,-0.67863 0.90484,0 1.50806,0.60323 0.64093,0.60322 0.64093,1.58346 z"
         id="path20054" />
      <path
         d="m 134.64625,606.52157 q -0.45242,-0.90484 -1.54576,-1.50806 -1.05565,-0.64092 -2.3752,-0.64092 -1.54576,0 -2.86531,0.64092 -1.28185,0.60322 -2.22439,1.69657 -0.94254,1.05564 -1.47036,2.4883 -0.52782,1.39495 -0.52782,2.97842 0,1.09334 0.30161,2.03588 0.33932,0.94253 0.98024,1.65886 0.64093,0.67863 1.58346,1.09335 0.98024,0.41471 2.26209,0.41471 1.69657,0 2.86532,-0.60322 1.16874,-0.60323 2.03588,-1.54576 l 2.11128,1.96048 q -1.43265,1.43265 -3.20462,2.29979 -1.73427,0.82943 -4.03407,0.82943 -1.92277,0 -3.50623,-0.56552 -1.54577,-0.56553 -2.63911,-1.58347 -1.09334,-1.01794 -1.69657,-2.41289 -0.60322,-1.43266 -0.60322,-3.16693 0,-2.22439 0.75403,-4.22257 0.79173,-2.03588 2.18669,-3.54394 1.43265,-1.54576 3.43083,-2.45059 1.99818,-0.90484 4.44878,-0.90484 0.98024,0 1.92278,0.18851 0.98023,0.1885 1.80967,0.56552 0.86713,0.33931 1.54576,0.90484 0.71633,0.56552 1.16875,1.35725 z"
         id="path20056" />
      <path
         d="m 142.14878,611.95059 q -0.0377,0.1885 -0.0377,0.33931 0,0.1131 0,0.26391 0,1.05564 0.37702,1.96048 0.41471,0.86713 1.09334,1.54576 0.71633,0.64093 1.65887,1.01794 0.98024,0.33931 2.07358,0.33931 1.92278,0 3.28003,-0.75403 1.39496,-0.79173 2.33749,-1.96047 l 2.07359,1.96047 q -1.58347,1.80968 -3.61935,2.75221 -2.03588,0.90484 -4.41107,0.90484 -1.77197,0 -3.31774,-0.52782 -1.50806,-0.52782 -2.6391,-1.54576 -1.09334,-1.01794 -1.73427,-2.4883 -0.60322,-1.47036 -0.60322,-3.35544 0,-2.22438 0.79173,-4.22256 0.79173,-1.99818 2.18669,-3.46854 1.39495,-1.50806 3.31773,-2.3752 1.92277,-0.86713 4.14716,-0.86713 3.43084,0 5.42902,1.88507 1.99818,1.84738 1.99818,5.20281 0,0.52782 -0.11311,1.54576 -0.0754,0.98024 -0.26391,1.84738 z m 11.04654,-2.56371 q 0.0377,-0.26391 0.0377,-0.56552 0.0377,-0.30161 0.0377,-0.56552 0,-1.73427 -1.13105,-2.86531 -1.13104,-1.16875 -3.28003,-1.16875 -1.28185,0 -2.33749,0.45242 -1.05564,0.45242 -1.88508,1.16874 -0.79173,0.71633 -1.35725,1.65887 -0.52782,0.94254 -0.75403,1.88507 z"
         id="path20058" />
      <path
         d="m 171.93291,606.25766 q -0.52782,-0.86713 -1.43265,-1.43266 -0.90484,-0.56552 -2.3375,-0.56552 -0.64092,0 -1.28185,0.15081 -0.64092,0.1131 -1.20644,0.41471 -0.52783,0.26391 -0.86714,0.75403 -0.33931,0.49012 -0.33931,1.16875 0,1.13104 0.82943,1.62116 0.82943,0.49012 2.3752,0.90484 2.5637,0.75403 3.92095,1.96048 1.39496,1.16874 1.39496,3.35543 0,1.47036 -0.64093,2.5637 -0.64092,1.09335 -1.69657,1.80968 -1.01794,0.71632 -2.33749,1.05564 -1.31955,0.37701 -2.67681,0.37701 -2.5637,0 -4.44877,-0.94253 -1.84738,-0.94254 -2.86532,-2.56371 l 2.82762,-1.84737 q 0.60322,1.09334 1.77197,1.77197 1.20644,0.67863 2.7145,0.67863 1.58347,0 2.75221,-0.64093 1.16875,-0.67863 1.16875,-1.99818 0,-1.16874 -0.94254,-1.77197 -0.90483,-0.60322 -2.75221,-1.20645 -1.05564,-0.33931 -1.92277,-0.71632 -0.86714,-0.37702 -1.50806,-0.94254 -0.64093,-0.56552 -1.01794,-1.31955 -0.33932,-0.75403 -0.33932,-1.84738 0,-1.31955 0.60323,-2.33749 0.60322,-1.05564 1.62116,-1.77197 1.01794,-0.71633 2.33749,-1.09335 1.35726,-0.37701 2.78992,-0.37701 2.07358,0 3.73244,0.79173 1.65887,0.79173 2.4883,2.22439 z"
         id="path20060" />
    </g>
    <g
       aria-label="super saw"
       transform="scale(0.66536136,1.5029427)"
       id="text17558"
       style="font-style:italic;font-weight:500;font-size:57.8354px;font-family:'Avenir Next';-inkscape-font-specification:'Avenir Next, Medium Italic';fill:#1a1a1a;stroke-width:3.09832">
      <path
         d="m 69.83338,26.676201 q -0.809696,-1.330215 -2.197746,-2.197746 -1.388049,-0.867531 -3.585794,-0.867531 -0.983202,0 -1.966404,0.231342 -0.983202,0.173506 -1.850733,0.636189 -0.809695,0.404848 -1.330214,1.156708 -0.520519,0.751861 -0.520519,1.792898 0,1.735062 1.272379,2.486922 1.272379,0.75186 3.64363,1.38805 3.932808,1.156708 6.014882,3.00744 2.13991,1.792898 2.13991,5.147351 0,2.25558 -0.983202,3.932807 -0.983202,1.677227 -2.602593,2.776099 -1.561556,1.098873 -3.585795,1.619391 -2.024239,0.578354 -4.106313,0.578354 -3.932807,0 -6.824577,-1.445885 -2.833935,-1.445885 -4.395491,-3.932807 l 4.337655,-2.833934 q 0.925367,1.677226 2.718264,2.718263 1.850733,1.041038 4.164149,1.041038 2.429087,0 4.221984,-0.983202 1.792897,-1.041037 1.792897,-3.065276 0,-1.792898 -1.445885,-2.718264 -1.388049,-0.925366 -4.221984,-1.850733 -1.619391,-0.520518 -2.949605,-1.098872 -1.330214,-0.578354 -2.313416,-1.445885 -0.983202,-0.867531 -1.561556,-2.024239 -0.520519,-1.156708 -0.520519,-2.833935 0,-2.024239 0.925367,-3.585795 0.925366,-1.619391 2.486922,-2.718264 1.561556,-1.098872 3.585795,-1.677226 2.082074,-0.578354 4.279819,-0.578354 3.180947,0 5.725705,1.214543 2.544758,1.214544 3.817136,3.412289 z"
         id="path19985" />
      <path
         d="m 95.801378,47.496944 q 0.115671,-0.809695 0.289177,-2.139909 0.173506,-1.38805 0.289177,-2.313416 h -0.115671 q -1.50372,2.371251 -3.874971,3.817136 -2.313416,1.38805 -5.263022,1.38805 -4.511161,0 -6.882412,-2.371252 -2.313416,-2.429087 -2.313416,-6.130552 0,-0.63619 0.05783,-1.330214 0.115671,-0.694025 0.231342,-1.38805 l 3.00744,-16.945772 h 5.320857 l -2.660428,15.095039 q -0.115671,0.809696 -0.231342,1.619391 -0.05784,0.751861 -0.05784,1.503721 0,2.371251 1.156708,3.874972 1.156708,1.50372 4.106313,1.50372 3.238783,0 5.610034,-2.429087 2.429087,-2.486922 3.123111,-6.593235 l 2.602595,-14.574521 h 5.32086 l -3.75931,21.456933 q -0.23134,1.098873 -0.52051,2.833935 -0.23135,1.735062 -0.34702,3.123111 z"
         id="path19987" />
      <path
         d="m 120.09221,24.478455 q 1.50372,-2.197745 4.16415,-3.64363 2.66043,-1.445885 5.84137,-1.445885 2.71827,0 4.91601,0.867531 2.19775,0.867531 3.7593,2.429087 1.56156,1.561556 2.42909,3.759301 0.86753,2.13991 0.86753,4.800338 0,3.52796 -1.21454,6.651071 -1.15671,3.065276 -3.23879,5.378692 -2.08207,2.313416 -4.97384,3.64363 -2.83393,1.330215 -6.18839,1.330215 -3.35445,0 -5.84137,-1.38805 -2.42909,-1.38805 -3.70147,-3.817136 h -0.11567 l -3.18095,18.333821 h -5.37869 l 7.28726,-41.294475 h 5.20519 l -0.75186,4.39549 z m 16.42525,7.287261 q 0,-3.354453 -1.9664,-5.610034 -1.96641,-2.313416 -5.66787,-2.313416 -2.25558,0 -4.27982,0.983202 -1.9664,0.925366 -3.47012,2.602593 -1.44589,1.619391 -2.31342,3.817136 -0.8097,2.197745 -0.8097,4.626832 0,1.735062 0.52052,3.238782 0.57836,1.445885 1.61939,2.486923 1.04104,1.041037 2.48693,1.677226 1.50372,0.578354 3.29661,0.578354 2.37125,0 4.33766,-0.925366 1.9664,-0.983202 3.35445,-2.602593 1.38805,-1.619391 2.13991,-3.817137 0.75186,-2.197745 0.75186,-4.742502 z"
         id="path19989" />
      <path
         d="m 152.65354,35.409346 q -0.0578,0.289177 -0.0578,0.520519 0,0.173506 0,0.404847 0,1.619391 0.57836,3.007441 0.63618,1.330214 1.67722,2.371251 1.09887,0.983202 2.54476,1.561556 1.50372,0.520519 3.18095,0.520519 2.9496,0 5.03168,-1.156708 2.13991,-1.214544 3.58579,-3.007441 l 3.18095,3.007441 q -2.42909,2.776099 -5.5522,4.221984 -3.12311,1.38805 -6.76674,1.38805 -2.71827,0 -5.08952,-0.809696 -2.31341,-0.809696 -4.04848,-2.371251 -1.67722,-1.561556 -2.66042,-3.817137 -0.92537,-2.25558 -0.92537,-5.14735 0,-3.412289 1.21454,-6.477565 1.21455,-3.065276 3.35446,-5.320857 2.13991,-2.313416 5.08951,-3.64363 2.94961,-1.330214 6.3619,-1.330214 5.26302,0 8.32829,2.89177 3.06528,2.833934 3.06528,7.981285 0,0.809696 -0.17351,2.371251 -0.11567,1.503721 -0.40484,2.833935 z m 16.94577,-3.932807 q 0.0578,-0.404848 0.0578,-0.867531 0.0578,-0.462683 0.0578,-0.867531 0,-2.660429 -1.73506,-4.395491 -1.73506,-1.792897 -5.03168,-1.792897 -1.96641,0 -3.5858,0.694025 -1.61939,0.694025 -2.89177,1.792897 -1.21454,1.098873 -2.08207,2.544758 -0.8097,1.445885 -1.15671,2.89177 z"
         id="path19991" />
      <path
         d="m 183.59539,26.040011 q 0.23134,-1.098872 0.46269,-2.833934 0.28917,-1.735062 0.40484,-3.123112 h 5.08952 q -0.0578,0.404848 -0.11567,1.041037 -0.0578,0.578354 -0.17351,1.272379 -0.0578,0.636189 -0.1735,1.272379 -0.0578,0.578354 -0.11567,1.041037 h 0.11567 q 1.44588,-2.429087 3.58579,-3.874972 2.19775,-1.50372 4.97385,-1.50372 1.27237,0 2.1399,0.231341 l -0.92536,5.03168 q -1.15671,-0.289177 -2.37125,-0.289177 -1.96641,0 -3.47013,0.75186 -1.50372,0.694025 -2.60259,1.908569 -1.09887,1.214543 -1.7929,2.833934 -0.63619,1.561556 -0.92536,3.296618 l -2.54476,14.401014 h -5.32086 l 3.7593,-21.456933 z"
         id="path19993" />
      <path
         d="m 232.63962,26.676201 q -0.80969,-1.330215 -2.19774,-2.197746 -1.38805,-0.867531 -3.5858,-0.867531 -0.9832,0 -1.9664,0.231342 -0.9832,0.173506 -1.85073,0.636189 -0.8097,0.404848 -1.33022,1.156708 -0.52052,0.751861 -0.52052,1.792898 0,1.735062 1.27238,2.486922 1.27238,0.75186 3.64363,1.38805 3.93281,1.156708 6.01488,3.00744 2.13991,1.792898 2.13991,5.147351 0,2.25558 -0.9832,3.932807 -0.9832,1.677227 -2.60259,2.776099 -1.56156,1.098873 -3.58579,1.619391 -2.02424,0.578354 -4.10632,0.578354 -3.93281,0 -6.82458,-1.445885 -2.83393,-1.445885 -4.39549,-3.932807 l 4.33766,-2.833934 q 0.92537,1.677226 2.71826,2.718263 1.85074,1.041038 4.16415,1.041038 2.42909,0 4.22199,-0.983202 1.79289,-1.041037 1.79289,-3.065276 0,-1.792898 -1.44588,-2.718264 -1.38805,-0.925366 -4.22199,-1.850733 -1.61939,-0.520518 -2.9496,-1.098872 -1.33022,-0.578354 -2.31342,-1.445885 -0.9832,-0.867531 -1.56155,-2.024239 -0.52052,-1.156708 -0.52052,-2.833935 0,-2.024239 0.92536,-3.585795 0.92537,-1.619391 2.48693,-2.718264 1.56155,-1.098872 3.58579,-1.677226 2.08208,-0.578354 4.27982,-0.578354 3.18095,0 5.72571,1.214543 2.54475,1.214544 3.81713,3.412289 z"
         id="path19995" />
      <path
         d="m 259.64866,30.377666 q 0.11567,-0.809695 0.1735,-1.272379 0.0578,-0.462683 0.0578,-0.867531 0,-2.429086 -1.50372,-3.470124 -1.50372,-1.098872 -4.27982,-1.098872 -2.19775,0 -4.39549,0.867531 -2.19775,0.867531 -3.81714,2.13991 l -2.19774,-3.585795 q 2.19774,-1.735062 5.14735,-2.718264 2.9496,-1.041037 6.01488,-1.041037 1.9664,0 3.7593,0.462683 1.85073,0.404848 3.23878,1.38805 1.44589,0.925366 2.31342,2.486922 0.86753,1.561556 0.86753,3.759301 0,0.520518 -0.0578,1.388049 -0.0578,0.809696 -0.1735,1.38805 l -2.02424,11.104397 q -0.28918,1.619391 -0.46269,3.354453 -0.1735,1.677226 -0.1735,2.833934 h -4.91601 q 0,-0.867531 0.0578,-1.850732 0.11567,-0.983202 0.28918,-1.966404 h -0.11567 q -1.9664,2.313416 -4.27982,3.354453 -2.31342,1.041037 -5.43653,1.041037 -1.38805,0 -2.89177,-0.347012 -1.50372,-0.347012 -2.7761,-1.156708 -1.21454,-0.867531 -2.02424,-2.255581 -0.80969,-1.388049 -0.80969,-3.470124 0,-3.354453 1.85073,-5.378692 1.85073,-2.082074 4.7425,-3.180947 2.94961,-1.156708 6.59324,-1.50372 3.64363,-0.404848 7.22943,-0.404848 z m -1.44589,3.932807 q -2.25558,0 -4.68467,0.231342 -2.42908,0.173506 -4.45332,0.809696 -1.96641,0.578354 -3.23879,1.735061 -1.27237,1.156708 -1.27237,3.007441 0,1.156708 0.40484,1.908568 0.46269,0.694025 1.15671,1.156708 0.75186,0.462684 1.61939,0.63619 0.92537,0.173506 1.85074,0.173506 1.79289,0 3.35445,-0.578354 1.56155,-0.636189 2.71826,-1.677227 1.15671,-1.041037 1.90857,-2.429086 0.8097,-1.38805 1.09887,-2.949606 l 0.40485,-2.024239 z"
         id="path19997" />
      <path
         d="m 277.23055,20.082965 1.90857,20.936415 h 0.11567 l 10.69955,-20.936415 h 5.37869 l 2.71826,20.936415 h 0.17351 l 10.41037,-20.936415 h 5.66787 l -14.45885,27.413979 h -5.5522 l -2.7761,-20.762908 h -0.11567 L 280.585,47.496944 h -5.5522 l -3.41229,-27.413979 z"
         id="path19999" />
    </g>
    <text
       xml:space="preserve"
       style="font-style:italic;font-variant:normal;font-weight:500;font-stretch:normal;font-size:26.9296px;font-family:'Avenir Next';-inkscape-font-specification:'Avenir Next, Medium Italic';font-variant-ligatures:normal;font-variant-caps:normal;font-variant-numeric:normal;font-variant-east-asian:normal;fill:#1a1a1a;stroke-width:2.01972"
       x="25.103827"
       y="822.49493"
       id="text17562"><tspan
         sodipodi:role="line"
         id="tspan17560"
         style="font-style:italic;font-variant:normal;font-weight:500;font-stretch:normal;font-size:26.9296px;font-family:'Avenir Next';-inkscape-font-specification:'Avenir Next, Medium Italic';font-variant-ligatures:normal;font-variant-caps:normal;font-variant-numeric:normal;font-variant-east-asian:normal;fill:#1a1a1a;stroke-width:2.01972"
         x="25.103827"
         y="822.49493">v/oct</tspan></text>
    <text
       xml:space="preserve"
       style="font-style:italic;font-variant:normal;font-weight:500;font-stretch:normal;font-size:26.9296px;font-family:'Avenir Next';-inkscape-font-specification:'Avenir Next, Medium Italic';font-variant-ligatures:normal;font-variant-caps:normal;font-variant-numeric:normal;font-variant-east-asian:normal;fill:#1a1a1a;stroke-width:2.01972"
       x="166.342"
       y="823.29041"
       id="text17566"><tspan
         sodipodi:role="line"
         id="tspan17564"
         style="font-style:italic;font-variant:normal;font-weight:500;font-stretch:normal;font-size:26.9296px;font-family:'Avenir Next';-inkscape-font-specification:'Avenir Next, Medium Italic';font-variant-ligatures:normal;font-variant-caps:normal;font-variant-numeric:normal;font-variant-east-asian:normal;fill:#1a1a1a;stroke-width:2.01972"
         x="166.342"
         y="823.29041">out</tspan></text>
  </g>
  <g
     inkscape:label="components"
     inkscape:groupmode="layer"
     id="layer1"
     style="display:none">
    <circle
       cx="15.54181"
       cy="65.624664"
       r="5.5019999"
       fill="#ff0000"
       id="circle13679"
       inkscape:label="voices"
       style="display:inline;stroke-width:0.131" />
    <circle
       cx="15.541811"
       cy="24.111713"
       r="5.5019999"
       fill="#ff0000"
       id="circle13669"
       inkscape:label="spread"
       style="display:inline;fill:#ff0000;stroke-width:0.131" />
    <circle
       cx="15.82789"
       cy="44.535984"
       r="2.9475"
       fill="#00ff00"
       id="circle13671"
       inkscape:label="spread"
       style="display:inline;stroke-width:0.131" />
    <circle
       cx="5.3682337"
       cy="112.3535"
       r="2.9475"
       fill="#00ff00"
       id="circle13675"
       inkscape:label="voct"
       style="display:inline;stroke-width:0.131" />
    <circle
       cx="15.8275"
       cy="85.882126"
       r="2.9475"
       fill="#00ff00"
       id="circle13673"
       inkscape:label="voices"
       style="display:inline;stroke-width:0.131" />
    <circle
       cx="25.246611"
       cy="112.35365"
       r="2.9475"
       fill="#0000ff"
       id="circle13677"
       inkscape:label="out"
       style="display:inline;stroke-width:0.131" />
    <circle
       cx="25.246611"
       cy="121.87864"
       r="2.9475"
       fill="#0000ff"
       id="circle20333"
       inkscape:label="out"
       style="display:inline;stroke-width:0.131" />
  </g>
</svg>
