<?xml version="1.0" encoding="UTF-8" standalone="no"?>
<!-- Created with Inkscape (http://www.inkscape.org/) -->

<svg
   width="30.48mm"
   height="128.5mm"
   viewBox="0 0 30.479999 128.5"
   version="1.1"
   id="svg20633"
   inkscape:version="1.2.1 (9c6d41e, 2022-07-14)"
   sodipodi:docname="SuperSaw.svg"
   xmlns:inkscape="http://www.inkscape.org/namespaces/inkscape"
   xmlns:sodipodi="http://sodipodi.sourceforge.net/DTD/sodipodi-0.dtd"
   xmlns="http://www.w3.org/2000/svg"
   xmlns:svg="http://www.w3.org/2000/svg">
  <sodipodi:namedview
     id="namedview20635"
     pagecolor="#ffffff"
     bordercolor="#000000"
     borderopacity="0.25"
     inkscape:showpageshadow="2"
     inkscape:pageopacity="0.0"
     inkscape:pagecheckerboard="0"
     inkscape:deskcolor="#d1d1d1"
     inkscape:document-units="mm"
     showgrid="false"
     inkscape:zoom="1.1447108"
     inkscape:cx="-208.78637"
     inkscape:cy="180.83171"
     inkscape:window-width="1920"
     inkscape:window-height="1052"
     inkscape:window-x="0"
     inkscape:window-y="0"
     inkscape:window-maximized="0"
     inkscape:current-layer="layer3" />
  <defs
     id="defs20630" />
  <g
     inkscape:groupmode="layer"
     id="layer3"
     inkscape:label="Layer 1"
     transform="scale(0.131)"
     style="display:inline">
    <rect
       x="1.0178401"
       y="1.0178401"
       width="346.96432"
       height="979.1192"
       stroke="#b3b3b3"
       stroke-width="2.03568"
       id="rect13657"
       style="display:none" />
    <path
       id="rect13631"
       style="display:inline;fill:#ffffff;fill-opacity:1;stroke-width:0.837772"
       inkscape:label="rect13631"
       d="M 0.21078444,1.105385 V 980.9431 H 232.97207 V 1.105385 Z" />
    <path
       d="m 146.744,338.234 c -0.696,0 -1.362,-0.078 -1.998,-0.234 -0.624,-0.156 -1.164,-0.366 -1.62,-0.63 l 0.216,-2.412 c 0.54,0.336 1.104,0.6 1.692,0.792 0.6,0.18 1.152,0.27 1.656,0.27 0.576,0 1.044,-0.12 1.404,-0.36 0.36,-0.24 0.54,-0.558 0.54,-0.954 0,-0.324 -0.12,-0.57 -0.36,-0.738 -0.24,-0.18 -0.618,-0.372 -1.134,-0.576 l -0.432,-0.18 c -0.06,-0.024 -0.126,-0.048 -0.198,-0.072 -0.072,-0.036 -0.156,-0.072 -0.252,-0.108 -0.672,-0.276 -1.212,-0.534 -1.62,-0.774 -0.408,-0.252 -0.762,-0.6 -1.062,-1.044 -0.288,-0.444 -0.432,-1.02 -0.432,-1.728 0,-1.152 0.39,-2.058 1.17,-2.718 0.78,-0.66 1.866,-0.99 3.258,-0.99 1.056,0 2.136,0.216 3.24,0.648 l -0.396,2.376 c -0.444,-0.252 -0.924,-0.45 -1.44,-0.594 -0.504,-0.144 -0.984,-0.216 -1.44,-0.216 -0.564,0 -1.002,0.114 -1.314,0.342 -0.312,0.216 -0.468,0.51 -0.468,0.882 0,0.324 0.108,0.576 0.324,0.756 0.216,0.18 0.564,0.372 1.044,0.576 l 0.738,0.288 c 0.696,0.264 1.272,0.522 1.728,0.774 0.456,0.252 0.846,0.618 1.17,1.098 0.324,0.468 0.486,1.08 0.486,1.836 0,1.164 -0.396,2.07 -1.188,2.718 -0.792,0.648 -1.896,0.972 -3.312,0.972 z m 7.83,-12.222 h 7.29 v 2.268 h -4.716 v 2.394 h 3.906 v 2.196 h -3.906 v 2.862 h 4.716 V 338 h -7.29 z m 10.805,0 h 2.61 v 9.72 h 4.32 V 338 h -6.93 z m 9.997,0 h 7.29 v 2.268 h -4.716 v 2.394 h 3.906 v 2.196 h -3.906 v 2.862 h 4.716 V 338 h -7.29 z m 16.227,12.222 c -1.92,0 -3.42,-0.516 -4.5,-1.548 -1.08,-1.032 -1.62,-2.49 -1.62,-4.374 0,-1.284 0.252,-2.418 0.756,-3.402 0.516,-0.984 1.242,-1.74 2.178,-2.268 0.936,-0.54 2.016,-0.81 3.24,-0.81 0.996,0 1.956,0.18 2.88,0.54 l -0.486,2.322 c -0.816,-0.372 -1.608,-0.558 -2.376,-0.558 -1.092,0 -1.956,0.36 -2.592,1.08 -0.636,0.708 -0.954,1.656 -0.954,2.844 0,1.212 0.336,2.154 1.008,2.826 0.672,0.672 1.602,1.008 2.79,1.008 0.78,0 1.536,-0.126 2.268,-0.378 l 0.396,2.214 c -0.876,0.336 -1.872,0.504 -2.988,0.504 z m 8.905,-9.954 h -3.276 v -2.268 h 9.144 v 2.268 h -3.24 V 338 h -2.628 z"
       fill="#000000"
       id="path13659"
       style="display:none" />
    <path
       d="m 143.24,670.012 h 2.772 l 2.088,8.622 2.142,-8.55 3.366,-0.252 2.268,9.054 2.106,-8.874 h 2.574 L 157.316,682 h -3.15 l -2.322,-9.486 -2.412,9.486 h -3.114 z m 20.528,0 h 2.61 V 682 h -2.61 z m 8.42,12.006 c -0.852,0 -1.488,-0.006 -1.908,-0.018 v -11.988 c 0.516,-0.012 1.278,-0.018 2.286,-0.018 1.02,0 1.782,0.006 2.286,0.018 1.176,0.012 2.196,0.252 3.06,0.72 0.876,0.456 1.548,1.11 2.016,1.962 0.48,0.852 0.72,1.848 0.72,2.988 0,1.248 -0.276,2.346 -0.828,3.294 -0.54,0.948 -1.308,1.686 -2.304,2.214 -0.984,0.528 -2.13,0.798 -3.438,0.81 -0.42,0.012 -1.05,0.018 -1.89,0.018 z m 1.872,-2.286 c 1.212,0 2.166,-0.354 2.862,-1.062 0.696,-0.708 1.044,-1.68 1.044,-2.916 0,-1.116 -0.3,-1.974 -0.9,-2.574 -0.588,-0.6 -1.44,-0.9 -2.556,-0.9 h -1.62 v 7.452 z m 11.92,-7.452 h -3.276 v -2.268 h 9.144 v 2.268 h -3.24 V 682 h -2.628 z m 8.934,-2.268 h 2.628 v 4.644 h 5.094 v -4.644 h 2.646 V 682 h -2.646 v -5.112 h -5.094 V 682 h -2.628 z"
       fill="#000000"
       id="path13661"
       style="display:none" />
    <path
       d="m 46.4624,70.024 h 5.544 l 4.176,17.244 4.284,-17.1 6.732,-0.504 4.536,18.108 4.212,-17.748 h 5.148 L 74.6144,94 h -6.3 L 63.6704,75.028 58.8464,94 h -6.228 z m 45.3159,0 h 6.264 L 106.934,94 h -5.4 l -1.9437,-5.472 h -9.432 L 88.3223,94 h -5.328 z m 6.264,14.04 -3.24,-9.18 -3.132,9.18 z m 10.0447,-14.04 h 5.76 l 5.688,18.288 5.652,-18.288 h 5.364 L 122.487,94 h -6.3 z m 27.848,0 h 14.58 v 4.536 h -9.432 v 4.788 h 7.812 v 4.392 h -7.812 v 5.724 h 9.432 V 94 h -14.58 z m 27.946,24.444 c -1.392,0 -2.724,-0.156 -3.996,-0.468 -1.248,-0.312 -2.328,-0.732 -3.24,-1.26 l 0.432,-4.824 c 1.08,0.672 2.208,1.2 3.384,1.584 1.2,0.36 2.304,0.54 3.312,0.54 1.152,0 2.088,-0.24 2.808,-0.72 0.72,-0.48 1.08,-1.116 1.08,-1.908 0,-0.648 -0.24,-1.14 -0.72,-1.476 -0.48,-0.36 -1.236,-0.744 -2.268,-1.152 l -0.864,-0.36 c -0.12,-0.048 -0.252,-0.096 -0.396,-0.144 -0.144,-0.072 -0.312,-0.144 -0.504,-0.216 -1.344,-0.552 -2.424,-1.068 -3.24,-1.548 -0.816,-0.504 -1.524,-1.2 -2.124,-2.088 -0.576,-0.888 -0.864,-2.04 -0.864,-3.456 0,-2.304 0.78,-4.116 2.34,-5.436 1.56,-1.32 3.732,-1.98 6.516,-1.98 2.112,0 4.272,0.432 6.48,1.296 l -0.792,4.752 c -0.888,-0.504 -1.848,-0.9 -2.88,-1.188 -1.008,-0.288 -1.968,-0.432 -2.88,-0.432 -1.128,0 -2.004,0.228 -2.628,0.684 -0.624,0.432 -0.936,1.02 -0.936,1.764 0,0.648 0.216,1.152 0.648,1.512 0.432,0.36 1.128,0.744 2.088,1.152 l 1.476,0.576 c 1.392,0.528 2.544,1.044 3.456,1.548 0.912,0.504 1.692,1.236 2.34,2.196 0.648,0.936 0.972,2.16 0.972,3.672 0,2.328 -0.792,4.14 -2.376,5.436 -1.584,1.296 -3.792,1.944 -6.624,1.944 z m 15.66,-24.444 h 14.58 v 4.536 h -9.432 v 4.788 h 7.812 v 4.392 h -7.812 v 5.724 h 9.432 V 94 h -14.58 z m 27.074,4.536 h -6.552 v -4.536 h 18.288 v 4.536 h -6.48 V 94 h -5.256 z m 38.432,19.908 c -2.352,0 -4.428,-0.516 -6.228,-1.548 -1.8,-1.032 -3.204,-2.484 -4.212,-4.356 -0.984,-1.872 -1.476,-4.02 -1.476,-6.444 0,-2.448 0.492,-4.608 1.476,-6.48 0.984,-1.872 2.376,-3.324 4.176,-4.356 1.8,-1.032 3.888,-1.548 6.264,-1.548 2.352,0 4.428,0.516 6.228,1.548 1.8,1.008 3.192,2.436 4.176,4.284 0.984,1.848 1.476,3.984 1.476,6.408 0,2.472 -0.492,4.656 -1.476,6.552 -0.984,1.872 -2.376,3.336 -4.176,4.392 -1.8,1.032 -3.876,1.548 -6.228,1.548 z m 0,-4.572 c 1.968,0 3.54,-0.708 4.716,-2.124 1.2,-1.416 1.8,-3.3 1.8,-5.652 0,-1.536 -0.276,-2.892 -0.828,-4.068 -0.528,-1.2 -1.296,-2.112 -2.304,-2.736 -0.984,-0.648 -2.112,-0.972 -3.384,-0.972 -1.272,0 -2.412,0.324 -3.42,0.972 -0.984,0.624 -1.752,1.536 -2.304,2.736 -0.528,1.176 -0.792,2.532 -0.792,4.068 0,1.536 0.264,2.892 0.792,4.068 0.552,1.176 1.32,2.088 2.304,2.736 0.984,0.648 2.124,0.972 3.42,0.972 z m 25.055,4.572 c -1.392,0 -2.724,-0.156 -3.996,-0.468 -1.248,-0.312 -2.328,-0.732 -3.24,-1.26 l 0.432,-4.824 c 1.08,0.672 2.208,1.2 3.384,1.584 1.2,0.36 2.304,0.54 3.312,0.54 1.152,0 2.088,-0.24 2.808,-0.72 0.72,-0.48 1.08,-1.116 1.08,-1.908 0,-0.648 -0.24,-1.14 -0.72,-1.476 -0.48,-0.36 -1.236,-0.744 -2.268,-1.152 l -0.864,-0.36 c -0.12,-0.048 -0.252,-0.096 -0.396,-0.144 -0.144,-0.072 -0.312,-0.144 -0.504,-0.216 -1.344,-0.552 -2.424,-1.068 -3.24,-1.548 -0.816,-0.504 -1.524,-1.2 -2.124,-2.088 -0.576,-0.888 -0.864,-2.04 -0.864,-3.456 0,-2.304 0.78,-4.116 2.34,-5.436 1.56,-1.32 3.732,-1.98 6.516,-1.98 2.112,0 4.272,0.432 6.48,1.296 l -0.792,4.752 c -0.888,-0.504 -1.848,-0.9 -2.88,-1.188 -1.008,-0.288 -1.968,-0.432 -2.88,-0.432 -1.128,0 -2.004,0.228 -2.628,0.684 -0.624,0.432 -0.936,1.02 -0.936,1.764 0,0.648 0.216,1.152 0.648,1.512 0.432,0.36 1.128,0.744 2.088,1.152 l 1.476,0.576 c 1.392,0.528 2.544,1.044 3.456,1.548 0.912,0.504 1.692,1.236 2.34,2.196 0.648,0.936 0.972,2.16 0.972,3.672 0,2.328 -0.792,4.14 -2.376,5.436 -1.584,1.296 -3.792,1.944 -6.624,1.944 z m 26.857,0 c -3.84,0 -6.84,-1.032 -9,-3.096 -2.16,-2.064 -3.24,-4.98 -3.24,-8.748 0,-2.568 0.504,-4.836 1.512,-6.804 1.032,-1.968 2.484,-3.48 4.356,-4.536 1.872,-1.08 4.032,-1.62 6.48,-1.62 1.992,0 3.912,0.36 5.76,1.08 l -0.972,4.644 c -1.632,-0.744 -3.216,-1.116 -4.752,-1.116 -2.184,0 -3.912,0.72 -5.184,2.16 -1.272,1.416 -1.908,3.312 -1.908,5.688 0,2.424 0.672,4.308 2.016,5.652 1.344,1.344 3.204,2.016 5.58,2.016 1.56,0 3.072,-0.252 4.536,-0.756 l 0.792,4.428 c -1.752,0.672 -3.744,1.008 -5.976,1.008 z"
       fill="#000000"
       id="path13667"
       style="display:none" />
    <text
       xml:space="preserve"
       style="font-weight:bold;font-size:37.7015px;font-family:'Arial Hebrew';-inkscape-font-specification:'Arial Hebrew Bold';fill:#1a1a1a;stroke-width:2.01972"
       x="451.77637"
       y="283.59033"
       id="text17550"><tspan
         sodipodi:role="line"
         id="tspan17548"
         style="font-style:normal;font-variant:normal;font-weight:normal;font-stretch:normal;font-size:37.7015px;font-family:Avenir;-inkscape-font-specification:'Avenir, Normal';font-variant-ligatures:normal;font-variant-caps:normal;font-variant-numeric:normal;font-variant-east-asian:normal;stroke-width:2.01972"
         x="451.77637"
         y="283.59033" /></text>
    <g
       aria-label="super saw"
       id="text14465"
       style="font-size:53.8592px;font-family:serif;-inkscape-font-specification:'serif, Normal';fill:#1a1a1a;stroke-width:2.01972"
       transform="translate(0,16.157761)">
      <path
         d="m 26.073744,17.546002 v 8.205113 h -0.867849 q -0.99934,-3.865871 -2.577246,-5.259688 -1.551608,-1.393817 -3.971064,-1.393817 -1.840891,0 -2.971724,0.973042 -1.130833,0.973042 -1.130833,2.156472 0,1.472712 0.84155,2.52465 0.815252,1.078236 3.313603,2.287964 l 3.839572,1.867189 q 5.338583,2.603545 5.338583,6.863892 0,3.287305 -2.498351,5.312284 -2.472054,1.998682 -5.548971,1.998682 -2.209068,0 -5.0493,-0.788953 -0.867848,-0.262985 -1.420115,-0.262985 -0.604864,0 -0.946744,0.68376 h -0.867848 v -8.599589 h 0.867848 q 0.736356,3.681781 2.813933,5.54897 2.077576,1.867189 4.654823,1.867189 1.814592,0 2.945425,-1.051938 1.157131,-1.078236 1.157131,-2.577246 0,-1.814593 -1.288623,-3.050619 -1.262325,-1.236027 -5.075598,-3.129514 -3.813274,-1.893488 -4.996704,-3.418797 -1.183429,-1.499011 -1.183429,-3.786975 0,-2.971723 2.024979,-4.970405 2.051279,-1.998681 5.285986,-1.998681 1.420116,0 3.445096,0.604864 1.34122,0.394477 1.788293,0.394477 0.420775,0 0.657461,-0.184089 0.236686,-0.184089 0.552267,-0.815252 z"
         id="path14780" />
      <path
         d="m 52.582568,18.25606 v 14.595633 q 0,4.181451 0.184089,5.128195 0.210388,0.920445 0.631163,1.288623 0.447073,0.368178 1.025639,0.368178 0.815251,0 1.84089,-0.447073 l 0.368179,0.920445 -7.205772,2.971724 h -1.18343 v -5.101897 q -3.103215,3.3662 -4.733719,4.234048 -1.630503,0.867849 -3.445095,0.867849 -2.02498,0 -3.52399,-1.157132 -1.472713,-1.183429 -2.051279,-3.02432 -0.578565,-1.84089 -0.578565,-5.20709 V 22.937182 q 0,-1.709399 -0.368178,-2.36686 -0.368178,-0.657461 -1.104535,-0.99934 -0.710057,-0.368178 -2.603545,-0.34188 V 18.25606 h 8.441798 v 16.120942 q 0,3.3662 1.157132,4.418137 1.183429,1.051938 2.840231,1.051938 1.130833,0 2.550948,-0.710058 1.446414,-0.710058 3.418797,-2.708739 V 22.779391 q 0,-2.051278 -0.762655,-2.761336 -0.736356,-0.736356 -3.103215,-0.788953 V 18.25606 Z"
         id="path14782" />
      <path
         d="m 56.658826,20.649218 7.416159,-2.998022 h 0.999341 v 5.627865 q 1.867189,-3.18211 3.734378,-4.444435 1.893488,-1.288624 3.971064,-1.288624 3.629184,0 6.048641,2.840231 2.971723,3.471394 2.971723,9.046663 0,6.232729 -3.576587,10.308987 -2.945425,3.339902 -7.41616,3.339902 -1.946084,0 -3.3662,-0.552267 -1.051937,-0.394477 -2.366859,-1.577907 v 7.337264 q 0,2.472053 0.289283,3.129514 0.315581,0.68376 1.051937,1.078236 0.762655,0.394477 2.735038,0.394477 v 0.973042 h -12.62325 v -0.973042 h 0.657461 q 1.446414,0.0263 2.472053,-0.552267 0.49967,-0.289283 0.762655,-0.946744 0.289282,-0.631163 0.289282,-3.261006 V 25.356638 q 0,-2.340561 -0.210387,-2.971723 -0.210388,-0.631163 -0.683759,-0.946744 -0.447074,-0.315581 -1.236027,-0.315581 -0.631163,0 -1.604205,0.368178 z m 8.4155,4.181451 v 8.994066 q 0,2.919126 0.236686,3.839572 0.368178,1.525309 1.788294,2.68244 1.446414,1.157131 3.629184,1.157131 2.629844,0 4.260347,-2.051278 2.130173,-2.68244 2.130173,-7.547651 0,-5.522672 -2.419456,-8.494395 -1.6831,-2.051278 -3.997362,-2.051278 -1.262325,0 -2.498352,0.631162 -0.946744,0.473372 -3.129514,2.840231 z"
         id="path14784" />
      <path
         d="m 89.374082,27.329021 q -0.0263,5.364881 2.603545,8.4155 2.629844,3.050618 6.180133,3.050618 2.36686,0 4.10256,-1.288623 1.76199,-1.314922 2.94542,-4.470734 l 0.81525,0.525968 q -0.55226,3.602886 -3.20841,6.57461 -2.65614,2.945425 -6.653501,2.945425 -4.339242,0 -7.442458,-3.3662 -3.076917,-3.392499 -3.076917,-9.09926 0,-6.180132 3.155812,-9.625228 3.182111,-3.471393 7.968427,-3.471393 4.049957,0 6.653507,2.68244 2.60354,2.656142 2.60354,7.126877 z m 0,-1.52531 h 11.150538 q -0.13149,-2.314262 -0.552268,-3.261006 -0.657461,-1.472712 -1.972383,-2.314262 -1.288623,-0.84155 -2.708739,-0.84155 -2.18277,0 -3.918467,1.709398 -1.709398,1.6831 -1.998681,4.70742 z"
         id="path14786" />
      <path
         d="m 116.27738,17.546002 v 5.417478 q 3.02433,-5.417478 6.20644,-5.417478 1.44641,0 2.39315,0.894147 0.94675,0.867848 0.94675,2.02498 0,1.025639 -0.68376,1.735697 -0.68376,0.710057 -1.6305,0.710057 -0.92045,0 -2.07758,-0.894147 -1.13083,-0.920445 -1.6831,-0.920445 -0.47337,0 -1.02564,0.525969 -1.18343,1.078236 -2.44576,3.550289 v 11.545014 q 0,1.998681 0.49968,3.02432 0.34187,0.710058 1.20972,1.18343 0.86785,0.473372 2.49835,0.473372 v 0.946743 h -12.33396 v -0.946743 q 1.84089,0 2.73504,-0.578566 0.65746,-0.420775 0.92044,-1.34122 0.13149,-0.447074 0.13149,-2.550949 v -9.335945 q 0,-4.20775 -0.18409,-4.996703 -0.15779,-0.815251 -0.63116,-1.18343 -0.44707,-0.368178 -1.13083,-0.368178 -0.81525,0 -1.84089,0.394477 l -0.26299,-0.946744 7.28467,-2.945425 z"
         id="path14788" />
      <path
         d="m 156.19841,17.546002 v 8.205113 h -0.86785 q -0.99934,-3.865871 -2.57725,-5.259688 -1.5516,-1.393817 -3.97106,-1.393817 -1.84089,0 -2.97172,0.973042 -1.13084,0.973042 -1.13084,2.156472 0,1.472712 0.84155,2.52465 0.81525,1.078236 3.31361,2.287964 l 3.83957,1.867189 q 5.33858,2.603545 5.33858,6.863892 0,3.287305 -2.49835,5.312284 -2.47205,1.998682 -5.54897,1.998682 -2.20907,0 -5.0493,-0.788953 -0.86785,-0.262985 -1.42012,-0.262985 -0.60486,0 -0.94674,0.68376 h -0.86785 v -8.599589 h 0.86785 q 0.73636,3.681781 2.81393,5.54897 2.07758,1.867189 4.65483,1.867189 1.81459,0 2.94542,-1.051938 1.15713,-1.078236 1.15713,-2.577246 0,-1.814593 -1.28862,-3.050619 -1.26233,-1.236027 -5.0756,-3.129514 -3.81327,-1.893488 -4.9967,-3.418797 -1.18343,-1.499011 -1.18343,-3.786975 0,-2.971723 2.02498,-4.970405 2.05127,-1.998681 5.28598,-1.998681 1.42012,0 3.4451,0.604864 1.34122,0.394477 1.78829,0.394477 0.42078,0 0.65746,-0.184089 0.23669,-0.184089 0.55227,-0.815252 z"
         id="path14790" />
      <path
         d="m 175.23848,38.874035 q -3.70808,2.866529 -4.65483,3.313603 -1.42011,0.657461 -3.02432,0.657461 -2.49835,0 -4.12885,-1.709399 -1.60421,-1.709398 -1.60421,-4.497032 0,-1.761996 0.78896,-3.050619 1.07823,-1.788294 3.73437,-3.3662 2.68245,-1.577906 8.88888,-3.839572 v -0.946744 q 0,-3.602886 -1.15713,-4.944106 -1.13084,-1.34122 -3.31361,-1.34122 -1.6568,0 -2.62984,0.894147 -0.99934,0.894147 -0.99934,2.051278 l 0.0526,1.525309 q 0,1.209728 -0.63116,1.867189 -0.60486,0.657461 -1.6042,0.657461 -0.97304,0 -1.60421,-0.683759 -0.60486,-0.68376 -0.60486,-1.867189 0,-2.261666 2.31426,-4.155153 2.31426,-1.893488 6.49572,-1.893488 3.2084,0 5.25968,1.078236 1.55161,0.815252 2.28797,2.550948 0.47337,1.130833 0.47337,4.628525 v 8.178814 q 0,3.445096 0.13149,4.234049 0.13149,0.762654 0.42078,1.025639 0.31558,0.262984 0.71005,0.262984 0.42078,0 0.73636,-0.184089 0.55227,-0.34188 2.13017,-1.919786 v 1.472713 q -2.94542,3.944765 -5.62786,3.944765 -1.28863,0 -2.05128,-0.894147 -0.76266,-0.894146 -0.78895,-3.050618 z m 0,-1.709399 v -9.178154 q -3.97107,1.577906 -5.1282,2.235367 -2.07758,1.157131 -2.97172,2.419456 -0.89415,1.262325 -0.89415,2.761336 0,1.893488 1.13083,3.155813 1.13084,1.236026 2.60355,1.236026 1.99868,0 5.25969,-2.629844 z"
         id="path14792" />
      <path
         d="m 184.15366,18.25606 h 10.0986 v 0.973042 q -1.39382,0.105194 -1.84089,0.49967 -0.42078,0.394477 -0.42078,1.130833 0,0.815252 0.44707,1.972383 l 5.1545,13.859276 5.18079,-11.282029 -1.36752,-3.550289 q -0.63116,-1.577906 -1.6568,-2.18277 -0.57857,-0.368179 -2.15647,-0.447074 V 18.25606 h 11.46612 v 0.973042 q -1.89349,0.07889 -2.68244,0.683759 -0.52597,0.420775 -0.52597,1.341221 0,0.525969 0.21038,1.078236 l 5.47008,13.832978 5.0756,-13.333308 q 0.52597,-1.420116 0.52597,-2.261666 0,-0.49967 -0.52597,-0.894146 -0.49967,-0.394477 -1.99868,-0.447074 V 18.25606 h 7.60024 v 0.973042 q -2.28796,0.34188 -3.3662,3.103216 l -8.04732,20.749467 h -1.07823 l -6.02235,-15.384586 -7.02168,15.384586 h -0.97304 l -7.73174,-20.249797 q -0.76266,-1.919786 -1.49901,-2.577247 -0.73636,-0.683759 -2.31426,-1.025639 z"
         id="path14794" />
    </g>
    <g
       aria-label="spread"
       id="text14519"
       style="font-size:53.8592px;font-family:serif;-inkscape-font-specification:'serif, Normal';fill:#1a1a1a;stroke-width:2.01972"
       transform="translate(0,-4.0394402)">
      <path
         d="m 66.468148,175.08429 v 8.20511 H 65.6003 q -0.999341,-3.86587 -2.577247,-5.25969 -1.551608,-1.39382 -3.971064,-1.39382 -1.840891,0 -2.971723,0.97305 -1.130833,0.97304 -1.130833,2.15647 0,1.47271 0.84155,2.52465 0.815251,1.07823 3.313603,2.28796 l 3.839572,1.86719 q 5.338582,2.60355 5.338582,6.86389 0,3.28731 -2.498351,5.31229 -2.472053,1.99868 -5.54897,1.99868 -2.209069,0 -5.0493,-0.78895 -0.867849,-0.26299 -1.420116,-0.26299 -0.604864,0 -0.946744,0.68376 h -0.867848 v -8.59959 h 0.867848 q 0.736357,3.68178 2.813933,5.54897 2.077577,1.86719 4.654824,1.86719 1.814592,0 2.945425,-1.05194 1.157131,-1.07823 1.157131,-2.57724 0,-1.8146 -1.288624,-3.05062 -1.262325,-1.23603 -5.075598,-3.12952 -3.813273,-1.89348 -4.996703,-3.41879 -1.18343,-1.49901 -1.18343,-3.78698 0,-2.97172 2.02498,-4.9704 2.051278,-1.99868 5.285986,-1.99868 1.420115,0 3.445095,0.60486 1.34122,0.39448 1.788294,0.39448 0.420775,0 0.657461,-0.18409 0.236686,-0.18409 0.552267,-0.81525 z"
         id="path14647" />
      <path
         d="m 70.123631,178.1875 7.416159,-2.99802 h 0.999341 v 5.62787 q 1.867189,-3.18212 3.734378,-4.44444 1.893487,-1.28862 3.971064,-1.28862 3.629184,0 6.04864,2.84023 2.971724,3.47139 2.971724,9.04666 0,6.23273 -3.576588,10.30899 -2.945425,3.3399 -7.416159,3.3399 -1.946084,0 -3.3662,-0.55227 -1.051938,-0.39447 -2.366859,-1.5779 v 7.33726 q 0,2.47205 0.289282,3.12951 0.315582,0.68376 1.051938,1.07824 0.762655,0.39448 2.735037,0.39448 v 0.97304 H 69.992139 v -0.97304 h 0.65746 q 1.446414,0.0263 2.472054,-0.55227 0.49967,-0.28928 0.762654,-0.94674 0.289283,-0.63117 0.289283,-3.26101 v -22.77445 q 0,-2.34056 -0.210387,-2.97172 -0.210388,-0.63116 -0.68376,-0.94674 -0.447073,-0.31559 -1.236026,-0.31559 -0.631163,0 -1.604205,0.36818 z m 8.4155,4.18145 v 8.99407 q 0,2.91913 0.236686,3.83957 0.368178,1.52531 1.788293,2.68244 1.446414,1.15713 3.629185,1.15713 2.629843,0 4.260346,-2.05128 2.130174,-2.68244 2.130174,-7.54765 0,-5.52267 -2.419456,-8.49439 -1.6831,-2.05128 -3.997363,-2.05128 -1.262325,0 -2.498351,0.63116 -0.946744,0.47337 -3.129514,2.84023 z"
         id="path14649" />
      <path
         d="m 105.83691,175.08429 v 5.41747 q 3.02432,-5.41747 6.20643,-5.41747 1.44641,0 2.39316,0.89414 0.94674,0.86785 0.94674,2.02498 0,1.02564 -0.68376,1.7357 -0.68376,0.71006 -1.6305,0.71006 -0.92045,0 -2.07758,-0.89415 -1.13083,-0.92044 -1.6831,-0.92044 -0.47337,0 -1.02564,0.52596 -1.18343,1.07824 -2.44575,3.55029 v 11.54502 q 0,1.99868 0.49967,3.02432 0.34188,0.71006 1.20973,1.18343 0.86785,0.47337 2.49835,0.47337 v 0.94674 H 97.710691 v -0.94674 q 1.840891,0 2.735039,-0.57857 0.65746,-0.42077 0.92044,-1.34122 0.1315,-0.44707 0.1315,-2.55095 v -9.33594 q 0,-4.20775 -0.18409,-4.9967 -0.15779,-0.81526 -0.63117,-1.18343 -0.44707,-0.36818 -1.130828,-0.36818 -0.815252,0 -1.840891,0.39448 l -0.262984,-0.94675 7.284663,-2.94542 z"
         id="path14651" />
      <path
         d="m 120.77442,184.86731 q -0.0263,5.36488 2.60355,8.4155 2.62984,3.05061 6.18013,3.05061 2.36686,0 4.10256,-1.28862 1.76199,-1.31492 2.94542,-4.47073 l 0.81525,0.52596 q -0.55226,3.60289 -3.20841,6.57461 -2.65614,2.94543 -6.6535,2.94543 -4.33924,0 -7.44246,-3.3662 -3.07692,-3.3925 -3.07692,-9.09926 0,-6.18013 3.15582,-9.62523 3.18211,-3.47139 7.96842,-3.47139 4.04996,0 6.65351,2.68244 2.60354,2.65614 2.60354,7.12688 z m 0,-1.52531 h 11.15054 q -0.13149,-2.31427 -0.55227,-3.26101 -0.65746,-1.47271 -1.97238,-2.31426 -1.28862,-0.84155 -2.70874,-0.84155 -2.18277,0 -3.91847,1.7094 -1.7094,1.6831 -1.99868,4.70742 z"
         id="path14653" />
      <path
         d="m 154.27863,196.41232 q -3.70808,2.86653 -4.65482,3.3136 -1.42012,0.65746 -3.02432,0.65746 -2.49835,0 -4.12886,-1.7094 -1.6042,-1.70939 -1.6042,-4.49703 0,-1.76199 0.78895,-3.05062 1.07824,-1.78829 3.73438,-3.3662 2.68244,-1.5779 8.88887,-3.83957 v -0.94674 q 0,-3.60289 -1.15713,-4.94411 -1.13083,-1.34122 -3.3136,-1.34122 -1.6568,0 -2.62985,0.89415 -0.99934,0.89414 -0.99934,2.05128 l 0.0526,1.52531 q 0,1.20972 -0.63116,1.86718 -0.60487,0.65747 -1.60421,0.65747 -0.97304,0 -1.6042,-0.68376 -0.60486,-0.68376 -0.60486,-1.86719 0,-2.26167 2.31426,-4.15516 2.31426,-1.89348 6.49571,-1.89348 3.20841,0 5.25969,1.07823 1.55161,0.81525 2.28796,2.55095 0.47337,1.13083 0.47337,4.62853 v 8.17881 q 0,3.44509 0.1315,4.23405 0.13149,0.76265 0.42077,1.02564 0.31558,0.26298 0.71006,0.26298 0.42077,0 0.73636,-0.18409 0.55226,-0.34188 2.13017,-1.91978 v 1.47271 q -2.94543,3.94476 -5.62787,3.94476 -1.28862,0 -2.05127,-0.89414 -0.76266,-0.89415 -0.78896,-3.05062 z m 0,-1.7094 v -9.17815 q -3.97106,1.5779 -5.12819,2.23536 -2.07758,1.15713 -2.97173,2.41946 -0.89414,1.26232 -0.89414,2.76134 0,1.89348 1.13083,3.15581 1.13083,1.23602 2.60355,1.23602 1.99868,0 5.25968,-2.62984 z"
         id="path14655" />
      <path
         d="m 181.55011,197.17497 q -1.762,1.84089 -3.4451,2.65615 -1.6831,0.78895 -3.62918,0.78895 -3.94477,0 -6.89019,-3.28731 -2.94543,-3.3136 -2.94543,-8.49439 0,-5.18079 3.26101,-9.46744 3.261,-4.31294 8.3892,-4.31294 3.18211,0 5.25969,2.02498 v -4.44444 q 0,-4.12885 -0.21039,-5.0756 -0.18409,-0.94674 -0.60487,-1.28862 -0.42077,-0.34188 -1.05193,-0.34188 -0.68376,0 -1.8146,0.42078 l -0.34187,-0.92045 7.17947,-2.94543 h 1.18343 v 27.85005 q 0,4.23405 0.18409,5.18079 0.21038,0.92045 0.63116,1.28863 0.44707,0.36817 1.02564,0.36817 0.71006,0 1.89349,-0.44707 l 0.28928,0.92045 -7.15318,2.97172 h -1.20972 z m 0,-1.84089 v -12.41286 q -0.15779,-1.78829 -0.94675,-3.26101 -0.78895,-1.47271 -2.10387,-2.20906 -1.28863,-0.76266 -2.52465,-0.76266 -2.31427,0 -4.12886,2.07758 -2.39315,2.73504 -2.39315,7.99472 0,5.31229 2.31426,8.15252 2.31426,2.81393 5.15449,2.81393 2.39316,0 4.62853,-2.39316 z"
         id="path14657" />
    </g>
    <g
       aria-label="voices"
       id="text14523"
       style="font-size:53.8592px;font-family:serif;-inkscape-font-specification:'serif, Normal';fill:#1a1a1a;stroke-width:2.01972"
       transform="translate(0,-4.0394402)">
      <path
         d="m 49.663447,502.98827 h 11.334626 v 0.97304 h -0.736356 q -1.025639,0 -1.577906,0.49967 -0.525969,0.49967 -0.525969,1.34122 0,0.92045 0.552267,2.18277 l 5.601567,13.30701 5.627866,-13.80668 q 0.604864,-1.47271 0.604864,-2.23537 0,-0.36817 -0.210387,-0.60486 -0.289283,-0.39448 -0.736357,-0.52597 -0.447073,-0.15779 -1.814592,-0.15779 v -0.97304 h 7.863233 v 0.97304 q -1.367519,0.10519 -1.893488,0.55227 -0.920445,0.78895 -1.656801,2.62984 l -8.546992,20.67057 H 62.470786 L 53.871197,507.4853 q -0.578566,-1.42011 -1.104535,-2.02498 -0.525968,-0.63116 -1.34122,-1.05194 -0.447073,-0.23668 -1.761995,-0.44707 z"
         id="path14660" />
      <path
         d="m 89.610773,502.27821 q 5.470075,0 8.783678,4.15515 2.813929,3.55029 2.813929,8.15252 0,3.23471 -1.551604,6.54831 -1.551608,3.3136 -4.286645,4.9967 -2.708739,1.6831 -6.048641,1.6831 -5.443776,0 -8.652186,-4.33924 -2.708739,-3.65548 -2.708739,-8.20511 0,-3.3136 1.630503,-6.57461 1.656802,-3.28731 4.339243,-4.83891 2.68244,-1.57791 5.680462,-1.57791 z m -0.815251,1.7094 q -1.393818,0 -2.813933,0.84155 -1.393817,0.81525 -2.261666,2.89283 -0.867848,2.07757 -0.867848,5.33858 0,5.25969 2.077576,9.07296 2.103875,3.81327 5.522672,3.81327 2.550948,0 4.20775,-2.10387 1.656802,-2.10388 1.656802,-7.23207 0,-6.41682 -2.761336,-10.0986 -1.867189,-2.52465 -4.760017,-2.52465 z"
         id="path14662" />
      <path
         d="m 110.88621,489.68126 q 1.10453,0 1.86719,0.78895 0.78895,0.76266 0.78895,1.86719 0,1.10454 -0.78895,1.89349 -0.76266,0.78895 -1.86719,0.78895 -1.10454,0 -1.89349,-0.78895 -0.78895,-0.78895 -0.78895,-1.89349 0,-1.10453 0.76265,-1.86719 0.78896,-0.78895 1.91979,-0.78895 z m 2.18277,12.59695 v 19.35565 q 0,2.26167 0.31558,3.02432 0.34188,0.73636 0.97304,1.10453 0.65746,0.36818 2.36686,0.36818 v 0.94675 h -11.7028 v -0.94675 q 1.76199,0 2.36686,-0.34188 0.60486,-0.34188 0.94674,-1.13083 0.36818,-0.78895 0.36818,-3.02432 v -9.28335 q 0,-3.91847 -0.23669,-5.0756 -0.18409,-0.84155 -0.57856,-1.15713 -0.39448,-0.34188 -1.07824,-0.34188 -0.73636,0 -1.78829,0.39448 l -0.36818,-0.94674 7.25837,-2.94543 z"
         id="path14664" />
      <path
         d="m 140.18267,517.92578 q -0.97304,4.76002 -3.81327,7.33726 -2.84023,2.55095 -6.28533,2.55095 -4.10256,0 -7.15317,-3.44509 -3.05062,-3.4451 -3.05062,-9.30965 0,-5.68046 3.3662,-9.23075 3.3925,-3.55029 8.12621,-3.55029 3.55029,0 5.83826,1.89349 2.28796,1.86719 2.28796,3.89217 0,0.99934 -0.65746,1.6305 -0.63116,0.60486 -1.78829,0.60486 -1.55161,0 -2.34056,-0.99934 -0.44708,-0.55226 -0.60487,-2.10387 -0.13149,-1.55161 -1.05194,-2.36686 -0.92044,-0.78895 -2.55094,-0.78895 -2.62985,0 -4.23405,1.94608 -2.13018,2.57725 -2.13018,6.8113 0,4.31294 2.10388,7.62654 2.13017,3.28731 5.73306,3.28731 2.57725,0 4.62852,-1.762 1.44642,-1.20973 2.81394,-4.39184 z"
         id="path14666" />
      <path
         d="m 147.67772,512.06123 q -0.0263,5.36488 2.60354,8.4155 2.62985,3.05062 6.18014,3.05062 2.36686,0 4.10255,-1.28863 1.762,-1.31492 2.94543,-4.47073 l 0.81525,0.52597 q -0.55227,3.60288 -3.20841,6.57461 -2.65614,2.94542 -6.6535,2.94542 -4.33925,0 -7.44246,-3.3662 -3.07692,-3.3925 -3.07692,-9.09926 0,-6.18013 3.15581,-9.62522 3.18211,-3.4714 7.96843,-3.4714 4.04996,0 6.65351,2.68244 2.60354,2.65614 2.60354,7.12688 z m 0,-1.52531 h 11.15054 q -0.1315,-2.31426 -0.55227,-3.26101 -0.65746,-1.47271 -1.97238,-2.31426 -1.28863,-0.84155 -2.70874,-0.84155 -2.18277,0 -3.91847,1.7094 -1.7094,1.6831 -1.99868,4.70742 z"
         id="path14668" />
      <path
         d="m 183.10172,502.27821 v 8.20511 h -0.86785 q -0.99934,-3.86587 -2.57725,-5.25968 -1.55161,-1.39382 -3.97106,-1.39382 -1.84089,0 -2.97173,0.97304 -1.13083,0.97304 -1.13083,2.15647 0,1.47271 0.84155,2.52465 0.81525,1.07824 3.3136,2.28797 l 3.83958,1.86719 q 5.33858,2.60354 5.33858,6.86389 0,3.2873 -2.49835,5.31228 -2.47206,1.99868 -5.54897,1.99868 -2.20907,0 -5.0493,-0.78895 -0.86785,-0.26298 -1.42012,-0.26298 -0.60486,0 -0.94674,0.68375 h -0.86785 v -8.59958 h 0.86785 q 0.73635,3.68178 2.81393,5.54897 2.07758,1.86719 4.65482,1.86719 1.8146,0 2.94543,-1.05194 1.15713,-1.07824 1.15713,-2.57725 0,-1.81459 -1.28862,-3.05062 -1.26233,-1.23602 -5.0756,-3.12951 -3.81328,-1.89349 -4.99671,-3.4188 -1.18343,-1.49901 -1.18343,-3.78697 0,-2.97173 2.02498,-4.97041 2.05128,-1.99868 5.28599,-1.99868 1.42012,0 3.4451,0.60486 1.34122,0.39448 1.78829,0.39448 0.42077,0 0.65746,-0.18409 0.23669,-0.18409 0.55227,-0.81525 z"
         id="path14670" />
    </g>
    <g
       aria-label="v/oct"
       id="text14531"
       style="font-size:29.6226px;font-family:serif;-inkscape-font-specification:'serif, Normal';fill:#1a1a1a;stroke-width:2.01972"
       transform="translate(-4.0394402,8.0788804)">
      <path
         d="m 17.146743,857.17991 h 6.234053 v 0.53517 H 22.9758 q -0.564103,0 -0.86785,0.27482 -0.289283,0.27482 -0.289283,0.73767 0,0.50625 0.303747,1.20053 l 3.080866,7.31886 3.095331,-7.59368 q 0.332675,-0.81 0.332675,-1.22946 0,-0.20249 -0.115713,-0.33267 -0.159106,-0.21696 -0.404996,-0.28928 -0.245891,-0.0868 -0.998028,-0.0868 v -0.53517 h 4.324784 v 0.53517 q -0.752136,0.0579 -1.041419,0.30375 -0.506246,0.43392 -0.911242,1.44641 l -4.700852,11.36883 h -0.593031 l -4.72978,-11.18079 q -0.318212,-0.78107 -0.607495,-1.11374 -0.289283,-0.34714 -0.737672,-0.57857 -0.245891,-0.13018 -0.969099,-0.24589 z"
         id="path14686" />
      <path
         d="m 40.014581,849.86104 -7.101903,20.97303 h -1.157133 l 7.101903,-20.97303 z"
         id="path14688" />
      <path
         d="m 47.347911,856.78937 q 3.008545,0 4.831029,2.28534 1.547666,1.95266 1.547666,4.48389 0,1.77909 -0.853386,3.60158 -0.853385,1.82248 -2.357658,2.74819 -1.489809,0.9257 -3.326757,0.9257 -2.994081,0 -4.758709,-2.38658 -1.489808,-2.01052 -1.489808,-4.51282 0,-1.82249 0.896778,-3.61604 0.911242,-1.80802 2.386586,-2.66141 1.475345,-0.86785 3.124259,-0.86785 z m -0.448389,0.94017 q -0.766601,0 -1.547665,0.46286 -0.766601,0.44839 -1.243918,1.59106 -0.477317,1.14266 -0.477317,2.93622 0,2.89283 1.142668,4.99013 1.157133,2.09731 3.037474,2.09731 1.403024,0 2.314266,-1.15713 0.911242,-1.15714 0.911242,-3.97765 0,-3.52925 -1.518737,-5.55424 -1.026955,-1.38856 -2.618013,-1.38856 z"
         id="path14690" />
      <path
         d="m 66.932382,865.39555 q -0.535174,2.61801 -2.097303,4.0355 -1.562129,1.40302 -3.456934,1.40302 -2.256409,0 -3.934252,-1.8948 -1.677843,-1.89481 -1.677843,-5.12031 0,-3.12426 1.851413,-5.07692 1.865877,-1.95267 4.469425,-1.95267 1.952662,0 3.211044,1.04142 1.258382,1.02696 1.258382,2.1407 0,0.54964 -0.361604,0.89678 -0.34714,0.33267 -0.983563,0.33267 -0.853385,0 -1.28731,-0.54964 -0.245891,-0.30374 -0.332676,-1.15713 -0.07232,-0.85338 -0.578566,-1.30177 -0.506246,-0.43393 -1.403024,-0.43393 -1.446416,0 -2.32873,1.07035 -1.171597,1.41749 -1.171597,3.74622 0,2.37212 1.157133,4.1946 1.171597,1.80802 3.153187,1.80802 1.417488,0 2.545692,-0.96909 0.795529,-0.66536 1.547666,-2.41552 z"
         id="path14692" />
      <path
         d="m 72.674655,852.82619 v 4.35372 h 3.09533 v 1.01249 h -3.09533 v 8.59171 q 0,1.28731 0.361604,1.7357 0.376068,0.44839 0.954634,0.44839 0.477317,0 0.925706,-0.28929 0.448389,-0.30374 0.69428,-0.88231 h 0.564102 q -0.506245,1.41749 -1.431951,2.1407 -0.925707,0.70874 -1.90927,0.70874 -0.665351,0 -1.301774,-0.3616 -0.636423,-0.37607 -0.940171,-1.05589 -0.303747,-0.69428 -0.303747,-2.12623 v -8.90992 h -2.097303 v -0.47732 q 0.795529,-0.31821 1.619986,-1.07035 0.838921,-0.7666 1.489808,-1.80802 0.332676,-0.54964 0.925707,-2.01052 z"
         id="path14694" />
    </g>
    <g
       aria-label="out"
       id="text14535"
       style="font-size:29.6226px;font-family:serif;-inkscape-font-specification:'serif, Normal';fill:#1a1a1a;stroke-width:2.01972"
       transform="translate(0,-4.0394402)">
      <path
         d="m 181.84478,792.15851 q 3.00855,0 4.83103,2.28534 1.54767,1.95266 1.54767,4.48389 0,1.77909 -0.85339,3.60158 -0.85338,1.82248 -2.35766,2.74819 -1.4898,0.9257 -3.32675,0.9257 -2.99408,0 -4.75871,-2.38658 -1.48981,-2.01052 -1.48981,-4.51282 0,-1.82248 0.89678,-3.61604 0.91124,-1.80802 2.38658,-2.66141 1.47535,-0.86785 3.12426,-0.86785 z m -0.44839,0.94017 q -0.7666,0 -1.54766,0.46286 -0.7666,0.44839 -1.24392,1.59106 -0.47732,1.14266 -0.47732,2.93622 0,2.89283 1.14267,4.99014 1.15714,2.0973 3.03748,2.0973 1.40302,0 2.31426,-1.15713 0.91124,-1.15714 0.91124,-3.97765 0,-3.52925 -1.51873,-5.55424 -1.02696,-1.38856 -2.61802,-1.38856 z"
         id="path14697" />
      <path
         d="m 201.79086,792.54905 v 8.02761 q 0,2.2998 0.10125,2.82051 0.11571,0.50624 0.34714,0.70874 0.24589,0.2025 0.5641,0.2025 0.44839,0 1.01249,-0.24589 l 0.2025,0.50624 -3.96318,1.63445 h -0.65089 v -2.80604 q -1.70677,1.85141 -2.60355,2.32873 -0.89677,0.47731 -1.8948,0.47731 -1.11374,0 -1.9382,-0.63642 -0.80999,-0.65089 -1.1282,-1.66338 -0.31821,-1.01249 -0.31821,-2.8639 v -5.91584 q 0,-0.94017 -0.2025,-1.30178 -0.2025,-0.3616 -0.6075,-0.54964 -0.39053,-0.20249 -1.43195,-0.18803 v -0.53517 h 4.643 v 8.86653 q 0,1.85141 0.63642,2.42998 0.65089,0.57856 1.56213,0.57856 0.62196,0 1.40302,-0.39053 0.79553,-0.39053 1.88034,-1.48981 v -7.5069 q 0,-1.1282 -0.41946,-1.51873 -0.40499,-0.405 -1.70677,-0.43393 v -0.53517 z"
         id="path14699" />
      <path
         d="m 208.83491,788.19533 v 4.35372 h 3.09533 v 1.01249 h -3.09533 v 8.59171 q 0,1.28731 0.3616,1.7357 0.37607,0.44839 0.95463,0.44839 0.47732,0 0.92571,-0.28929 0.44839,-0.30374 0.69428,-0.88231 h 0.5641 q -0.50624,1.41749 -1.43195,2.1407 -0.92571,0.70874 -1.90927,0.70874 -0.66535,0 -1.30177,-0.3616 -0.63643,-0.37607 -0.94017,-1.05589 -0.30375,-0.69428 -0.30375,-2.12623 v -8.90992 h -2.0973 v -0.47732 q 0.79553,-0.31821 1.61998,-1.07035 0.83892,-0.7666 1.48981,-1.80802 0.33268,-0.54964 0.92571,-2.01052 z"
         id="path14701" />
    </g>
  </g>
  <g
     inkscape:label="components"
     inkscape:groupmode="layer"
     id="layer1"
     style="display:none">
    <circle
       cx="15.54181"
       cy="65.624664"
       r="5.5019999"
       fill="#ff0000"
       id="circle13679"
       inkscape:label="voices"
       style="display:inline;stroke-width:0.131" />
    <circle
       cx="15.541811"
       cy="24.111713"
       r="5.5019999"
       fill="#ff0000"
       id="circle13669"
       inkscape:label="spread"
       style="display:inline;fill:#ff0000;stroke-width:0.131" />
    <circle
       cx="15.82789"
       cy="44.535984"
       r="2.9475"
       fill="#00ff00"
       id="circle13671"
       inkscape:label="spread"
       style="display:inline;stroke-width:0.131" />
    <circle
       cx="5.3682337"
       cy="112.3535"
       r="2.9475"
       fill="#00ff00"
       id="circle13675"
       inkscape:label="voct"
       style="display:inline;stroke-width:0.131" />
    <circle
       cx="15.8275"
       cy="85.882126"
       r="2.9475"
       fill="#00ff00"
       id="circle13673"
       inkscape:label="voices"
       style="display:inline;stroke-width:0.131" />
    <circle
       cx="25.246611"
       cy="112.35365"
       r="2.9475"
       fill="#0000ff"
       id="circle13677"
       inkscape:label="out"
       style="display:inline;stroke-width:0.131" />
    <circle
       cx="25.246611"
       cy="121.87864"
       r="2.9475"
       fill="#0000ff"
       id="circle20333"
       inkscape:label="out"
       style="display:inline;stroke-width:0.131" />
  </g>
</svg>
