<?xml version="1.0" encoding="UTF-8" standalone="no"?>
<!-- Created with Inkscape (http://www.inkscape.org/) -->

<svg
   width="45.720001mm"
   height="128.5mm"
   viewBox="0 0 45.720001 128.5"
   version="1.1"
   id="svg20633"
   inkscape:version="1.2.1 (9c6d41e, 2022-07-14)"
   sodipodi:docname="wavesetOsc.svg"
   xmlns:inkscape="http://www.inkscape.org/namespaces/inkscape"
   xmlns:sodipodi="http://sodipodi.sourceforge.net/DTD/sodipodi-0.dtd"
   xmlns="http://www.w3.org/2000/svg"
   xmlns:svg="http://www.w3.org/2000/svg">
  <sodipodi:namedview
     id="namedview20635"
     pagecolor="#ffffff"
     bordercolor="#000000"
     borderopacity="0.25"
     inkscape:showpageshadow="2"
     inkscape:pageopacity="0.0"
     inkscape:pagecheckerboard="0"
     inkscape:deskcolor="#d1d1d1"
     inkscape:document-units="mm"
     showgrid="false"
     inkscape:zoom="0.56441565"
     inkscape:cx="195.7777"
     inkscape:cy="356.12053"
     inkscape:window-width="1920"
     inkscape:window-height="1052"
     inkscape:window-x="0"
     inkscape:window-y="28"
     inkscape:window-maximized="0"
     inkscape:current-layer="layer3" />
  <defs
     id="defs20630" />
  <g
     inkscape:groupmode="layer"
     id="layer3"
     inkscape:label="Layer 1"
     transform="scale(0.131)"
     style="display:inline">
    <rect
       x="1.0178401"
       y="1.0178401"
       width="346.96432"
       height="979.1192"
       stroke="#b3b3b3"
       stroke-width="2.03568"
       id="rect13657"
       style="display:none" />
    <rect
       x="0.26199999"
       y="0.26199806"
       width="45.141029"
       height="128.00729"
       fill="url(#paint0_diamond_102_722)"
       id="rect13631"
       style="display:inline;fill:#adfff9;fill-opacity:1;stroke-width:0.133351"
       transform="scale(7.6335879)"
       inkscape:label="rect13631" />
    <path
       d="m 146.744,338.234 c -0.696,0 -1.362,-0.078 -1.998,-0.234 -0.624,-0.156 -1.164,-0.366 -1.62,-0.63 l 0.216,-2.412 c 0.54,0.336 1.104,0.6 1.692,0.792 0.6,0.18 1.152,0.27 1.656,0.27 0.576,0 1.044,-0.12 1.404,-0.36 0.36,-0.24 0.54,-0.558 0.54,-0.954 0,-0.324 -0.12,-0.57 -0.36,-0.738 -0.24,-0.18 -0.618,-0.372 -1.134,-0.576 l -0.432,-0.18 c -0.06,-0.024 -0.126,-0.048 -0.198,-0.072 -0.072,-0.036 -0.156,-0.072 -0.252,-0.108 -0.672,-0.276 -1.212,-0.534 -1.62,-0.774 -0.408,-0.252 -0.762,-0.6 -1.062,-1.044 -0.288,-0.444 -0.432,-1.02 -0.432,-1.728 0,-1.152 0.39,-2.058 1.17,-2.718 0.78,-0.66 1.866,-0.99 3.258,-0.99 1.056,0 2.136,0.216 3.24,0.648 l -0.396,2.376 c -0.444,-0.252 -0.924,-0.45 -1.44,-0.594 -0.504,-0.144 -0.984,-0.216 -1.44,-0.216 -0.564,0 -1.002,0.114 -1.314,0.342 -0.312,0.216 -0.468,0.51 -0.468,0.882 0,0.324 0.108,0.576 0.324,0.756 0.216,0.18 0.564,0.372 1.044,0.576 l 0.738,0.288 c 0.696,0.264 1.272,0.522 1.728,0.774 0.456,0.252 0.846,0.618 1.17,1.098 0.324,0.468 0.486,1.08 0.486,1.836 0,1.164 -0.396,2.07 -1.188,2.718 -0.792,0.648 -1.896,0.972 -3.312,0.972 z m 7.83,-12.222 h 7.29 v 2.268 h -4.716 v 2.394 h 3.906 v 2.196 h -3.906 v 2.862 h 4.716 V 338 h -7.29 z m 10.805,0 h 2.61 v 9.72 h 4.32 V 338 h -6.93 z m 9.997,0 h 7.29 v 2.268 h -4.716 v 2.394 h 3.906 v 2.196 h -3.906 v 2.862 h 4.716 V 338 h -7.29 z m 16.227,12.222 c -1.92,0 -3.42,-0.516 -4.5,-1.548 -1.08,-1.032 -1.62,-2.49 -1.62,-4.374 0,-1.284 0.252,-2.418 0.756,-3.402 0.516,-0.984 1.242,-1.74 2.178,-2.268 0.936,-0.54 2.016,-0.81 3.24,-0.81 0.996,0 1.956,0.18 2.88,0.54 l -0.486,2.322 c -0.816,-0.372 -1.608,-0.558 -2.376,-0.558 -1.092,0 -1.956,0.36 -2.592,1.08 -0.636,0.708 -0.954,1.656 -0.954,2.844 0,1.212 0.336,2.154 1.008,2.826 0.672,0.672 1.602,1.008 2.79,1.008 0.78,0 1.536,-0.126 2.268,-0.378 l 0.396,2.214 c -0.876,0.336 -1.872,0.504 -2.988,0.504 z m 8.905,-9.954 h -3.276 v -2.268 h 9.144 v 2.268 h -3.24 V 338 h -2.628 z"
       fill="#000000"
       id="path13659" />
    <path
       d="m 143.24,670.012 h 2.772 l 2.088,8.622 2.142,-8.55 3.366,-0.252 2.268,9.054 2.106,-8.874 h 2.574 L 157.316,682 h -3.15 l -2.322,-9.486 -2.412,9.486 h -3.114 z m 20.528,0 h 2.61 V 682 h -2.61 z m 8.42,12.006 c -0.852,0 -1.488,-0.006 -1.908,-0.018 v -11.988 c 0.516,-0.012 1.278,-0.018 2.286,-0.018 1.02,0 1.782,0.006 2.286,0.018 1.176,0.012 2.196,0.252 3.06,0.72 0.876,0.456 1.548,1.11 2.016,1.962 0.48,0.852 0.72,1.848 0.72,2.988 0,1.248 -0.276,2.346 -0.828,3.294 -0.54,0.948 -1.308,1.686 -2.304,2.214 -0.984,0.528 -2.13,0.798 -3.438,0.81 -0.42,0.012 -1.05,0.018 -1.89,0.018 z m 1.872,-2.286 c 1.212,0 2.166,-0.354 2.862,-1.062 0.696,-0.708 1.044,-1.68 1.044,-2.916 0,-1.116 -0.3,-1.974 -0.9,-2.574 -0.588,-0.6 -1.44,-0.9 -2.556,-0.9 h -1.62 v 7.452 z m 11.92,-7.452 h -3.276 v -2.268 h 9.144 v 2.268 h -3.24 V 682 h -2.628 z m 8.934,-2.268 h 2.628 v 4.644 h 5.094 v -4.644 h 2.646 V 682 h -2.646 v -5.112 h -5.094 V 682 h -2.628 z"
       fill="#000000"
       id="path13661" />
    <path
       d="m 31.4639,800.012 h 2.88 l 2.844,9.144 2.826,-9.144 h 2.682 L 38.6639,812 h -3.15 z M 43.5211,812 l 6.372,-13.14 2.034,0.18 -6.372,13.14 z m 16.0683,0.234 c -1.176,0 -2.214,-0.258 -3.114,-0.774 -0.9,-0.516 -1.602,-1.242 -2.106,-2.178 -0.492,-0.936 -0.738,-2.01 -0.738,-3.222 0,-1.224 0.246,-2.304 0.738,-3.24 0.492,-0.936 1.188,-1.662 2.088,-2.178 0.9,-0.516 1.944,-0.774 3.132,-0.774 1.176,0 2.214,0.258 3.114,0.774 0.9,0.504 1.596,1.218 2.088,2.142 0.492,0.924 0.738,1.992 0.738,3.204 0,1.236 -0.246,2.328 -0.738,3.276 -0.492,0.936 -1.188,1.668 -2.088,2.196 -0.9,0.516 -1.938,0.774 -3.114,0.774 z m 0,-2.286 c 0.984,0 1.77,-0.354 2.358,-1.062 0.6,-0.708 0.9,-1.65 0.9,-2.826 0,-0.768 -0.138,-1.446 -0.414,-2.034 -0.264,-0.6 -0.648,-1.056 -1.152,-1.368 -0.492,-0.324 -1.056,-0.486 -1.692,-0.486 -0.636,0 -1.206,0.162 -1.71,0.486 -0.492,0.312 -0.876,0.768 -1.152,1.368 -0.264,0.588 -0.396,1.266 -0.396,2.034 0,0.768 0.132,1.446 0.396,2.034 0.276,0.588 0.66,1.044 1.152,1.368 0.492,0.324 1.062,0.486 1.71,0.486 z m 15.0454,2.286 c -1.92,0 -3.42,-0.516 -4.5,-1.548 -1.08,-1.032 -1.62,-2.49 -1.62,-4.374 0,-1.284 0.252,-2.418 0.756,-3.402 0.516,-0.984 1.242,-1.74 2.178,-2.268 0.936,-0.54 2.016,-0.81 3.24,-0.81 0.996,0 1.956,0.18 2.88,0.54 l -0.486,2.322 c -0.816,-0.372 -1.608,-0.558 -2.376,-0.558 -1.092,0 -1.956,0.36 -2.592,1.08 -0.636,0.708 -0.954,1.656 -0.954,2.844 0,1.212 0.336,2.154 1.008,2.826 0.672,0.672 1.602,1.008 2.79,1.008 0.78,0 1.536,-0.126 2.268,-0.378 l 0.396,2.214 c -0.876,0.336 -1.872,0.504 -2.988,0.504 z m 8.9055,-9.954 h -3.276 v -2.268 h 9.144 v 2.268 h -3.24 V 812 h -2.628 z"
       fill="#000000"
       id="path13663" />
    <path
       d="m 275.914,812.234 c -1.176,0 -2.214,-0.258 -3.114,-0.774 -0.9,-0.516 -1.602,-1.242 -2.106,-2.178 -0.492,-0.936 -0.738,-2.01 -0.738,-3.222 0,-1.224 0.246,-2.304 0.738,-3.24 0.492,-0.936 1.188,-1.662 2.088,-2.178 0.9,-0.516 1.944,-0.774 3.132,-0.774 1.176,0 2.214,0.258 3.114,0.774 0.9,0.504 1.596,1.218 2.088,2.142 0.492,0.924 0.738,1.992 0.738,3.204 0,1.236 -0.246,2.328 -0.738,3.276 -0.492,0.936 -1.188,1.668 -2.088,2.196 -0.9,0.516 -1.938,0.774 -3.114,0.774 z m 0,-2.286 c 0.984,0 1.77,-0.354 2.358,-1.062 0.6,-0.708 0.9,-1.65 0.9,-2.826 0,-0.768 -0.138,-1.446 -0.414,-2.034 -0.264,-0.6 -0.648,-1.056 -1.152,-1.368 -0.492,-0.324 -1.056,-0.486 -1.692,-0.486 -0.636,0 -1.206,0.162 -1.71,0.486 -0.492,0.312 -0.876,0.768 -1.152,1.368 -0.264,0.588 -0.396,1.266 -0.396,2.034 0,0.768 0.132,1.446 0.396,2.034 0.276,0.588 0.66,1.044 1.152,1.368 0.492,0.324 1.062,0.486 1.71,0.486 z m 14.329,2.286 c -0.996,0 -1.872,-0.21 -2.628,-0.63 -0.756,-0.42 -1.344,-1.008 -1.764,-1.764 -0.408,-0.768 -0.612,-1.65 -0.612,-2.646 v -7.182 h 2.628 v 6.984 c 0,0.888 0.21,1.596 0.63,2.124 0.432,0.516 1.014,0.774 1.746,0.774 0.732,0 1.314,-0.258 1.746,-0.774 0.432,-0.528 0.648,-1.236 0.648,-2.124 v -6.984 h 2.61 v 7.182 c 0,0.996 -0.21,1.878 -0.63,2.646 -0.408,0.756 -0.99,1.344 -1.746,1.764 -0.756,0.42 -1.632,0.63 -2.628,0.63 z m 11.345,-9.954 h -3.276 v -2.268 h 9.144 v 2.268 h -3.24 V 812 h -2.628 z"
       fill="#000000"
       id="path13665" />
    <path
       d="m 46.4624,70.024 h 5.544 l 4.176,17.244 4.284,-17.1 6.732,-0.504 4.536,18.108 4.212,-17.748 h 5.148 L 74.6144,94 h -6.3 L 63.6704,75.028 58.8464,94 h -6.228 z m 45.3159,0 h 6.264 L 106.934,94 h -5.4 l -1.9437,-5.472 h -9.432 L 88.3223,94 h -5.328 z m 6.264,14.04 -3.24,-9.18 -3.132,9.18 z m 10.0447,-14.04 h 5.76 l 5.688,18.288 5.652,-18.288 h 5.364 L 122.487,94 h -6.3 z m 27.848,0 h 14.58 v 4.536 h -9.432 v 4.788 h 7.812 v 4.392 h -7.812 v 5.724 h 9.432 V 94 h -14.58 z m 27.946,24.444 c -1.392,0 -2.724,-0.156 -3.996,-0.468 -1.248,-0.312 -2.328,-0.732 -3.24,-1.26 l 0.432,-4.824 c 1.08,0.672 2.208,1.2 3.384,1.584 1.2,0.36 2.304,0.54 3.312,0.54 1.152,0 2.088,-0.24 2.808,-0.72 0.72,-0.48 1.08,-1.116 1.08,-1.908 0,-0.648 -0.24,-1.14 -0.72,-1.476 -0.48,-0.36 -1.236,-0.744 -2.268,-1.152 l -0.864,-0.36 c -0.12,-0.048 -0.252,-0.096 -0.396,-0.144 -0.144,-0.072 -0.312,-0.144 -0.504,-0.216 -1.344,-0.552 -2.424,-1.068 -3.24,-1.548 -0.816,-0.504 -1.524,-1.2 -2.124,-2.088 -0.576,-0.888 -0.864,-2.04 -0.864,-3.456 0,-2.304 0.78,-4.116 2.34,-5.436 1.56,-1.32 3.732,-1.98 6.516,-1.98 2.112,0 4.272,0.432 6.48,1.296 l -0.792,4.752 c -0.888,-0.504 -1.848,-0.9 -2.88,-1.188 -1.008,-0.288 -1.968,-0.432 -2.88,-0.432 -1.128,0 -2.004,0.228 -2.628,0.684 -0.624,0.432 -0.936,1.02 -0.936,1.764 0,0.648 0.216,1.152 0.648,1.512 0.432,0.36 1.128,0.744 2.088,1.152 l 1.476,0.576 c 1.392,0.528 2.544,1.044 3.456,1.548 0.912,0.504 1.692,1.236 2.34,2.196 0.648,0.936 0.972,2.16 0.972,3.672 0,2.328 -0.792,4.14 -2.376,5.436 -1.584,1.296 -3.792,1.944 -6.624,1.944 z m 15.66,-24.444 h 14.58 v 4.536 h -9.432 v 4.788 h 7.812 v 4.392 h -7.812 v 5.724 h 9.432 V 94 h -14.58 z m 27.074,4.536 h -6.552 v -4.536 h 18.288 v 4.536 h -6.48 V 94 h -5.256 z m 38.432,19.908 c -2.352,0 -4.428,-0.516 -6.228,-1.548 -1.8,-1.032 -3.204,-2.484 -4.212,-4.356 -0.984,-1.872 -1.476,-4.02 -1.476,-6.444 0,-2.448 0.492,-4.608 1.476,-6.48 0.984,-1.872 2.376,-3.324 4.176,-4.356 1.8,-1.032 3.888,-1.548 6.264,-1.548 2.352,0 4.428,0.516 6.228,1.548 1.8,1.008 3.192,2.436 4.176,4.284 0.984,1.848 1.476,3.984 1.476,6.408 0,2.472 -0.492,4.656 -1.476,6.552 -0.984,1.872 -2.376,3.336 -4.176,4.392 -1.8,1.032 -3.876,1.548 -6.228,1.548 z m 0,-4.572 c 1.968,0 3.54,-0.708 4.716,-2.124 1.2,-1.416 1.8,-3.3 1.8,-5.652 0,-1.536 -0.276,-2.892 -0.828,-4.068 -0.528,-1.2 -1.296,-2.112 -2.304,-2.736 -0.984,-0.648 -2.112,-0.972 -3.384,-0.972 -1.272,0 -2.412,0.324 -3.42,0.972 -0.984,0.624 -1.752,1.536 -2.304,2.736 -0.528,1.176 -0.792,2.532 -0.792,4.068 0,1.536 0.264,2.892 0.792,4.068 0.552,1.176 1.32,2.088 2.304,2.736 0.984,0.648 2.124,0.972 3.42,0.972 z m 25.055,4.572 c -1.392,0 -2.724,-0.156 -3.996,-0.468 -1.248,-0.312 -2.328,-0.732 -3.24,-1.26 l 0.432,-4.824 c 1.08,0.672 2.208,1.2 3.384,1.584 1.2,0.36 2.304,0.54 3.312,0.54 1.152,0 2.088,-0.24 2.808,-0.72 0.72,-0.48 1.08,-1.116 1.08,-1.908 0,-0.648 -0.24,-1.14 -0.72,-1.476 -0.48,-0.36 -1.236,-0.744 -2.268,-1.152 l -0.864,-0.36 c -0.12,-0.048 -0.252,-0.096 -0.396,-0.144 -0.144,-0.072 -0.312,-0.144 -0.504,-0.216 -1.344,-0.552 -2.424,-1.068 -3.24,-1.548 -0.816,-0.504 -1.524,-1.2 -2.124,-2.088 -0.576,-0.888 -0.864,-2.04 -0.864,-3.456 0,-2.304 0.78,-4.116 2.34,-5.436 1.56,-1.32 3.732,-1.98 6.516,-1.98 2.112,0 4.272,0.432 6.48,1.296 l -0.792,4.752 c -0.888,-0.504 -1.848,-0.9 -2.88,-1.188 -1.008,-0.288 -1.968,-0.432 -2.88,-0.432 -1.128,0 -2.004,0.228 -2.628,0.684 -0.624,0.432 -0.936,1.02 -0.936,1.764 0,0.648 0.216,1.152 0.648,1.512 0.432,0.36 1.128,0.744 2.088,1.152 l 1.476,0.576 c 1.392,0.528 2.544,1.044 3.456,1.548 0.912,0.504 1.692,1.236 2.34,2.196 0.648,0.936 0.972,2.16 0.972,3.672 0,2.328 -0.792,4.14 -2.376,5.436 -1.584,1.296 -3.792,1.944 -6.624,1.944 z m 26.857,0 c -3.84,0 -6.84,-1.032 -9,-3.096 -2.16,-2.064 -3.24,-4.98 -3.24,-8.748 0,-2.568 0.504,-4.836 1.512,-6.804 1.032,-1.968 2.484,-3.48 4.356,-4.536 1.872,-1.08 4.032,-1.62 6.48,-1.62 1.992,0 3.912,0.36 5.76,1.08 l -0.972,4.644 c -1.632,-0.744 -3.216,-1.116 -4.752,-1.116 -2.184,0 -3.912,0.72 -5.184,2.16 -1.272,1.416 -1.908,3.312 -1.908,5.688 0,2.424 0.672,4.308 2.016,5.652 1.344,1.344 3.204,2.016 5.58,2.016 1.56,0 3.072,-0.252 4.536,-0.756 l 0.792,4.428 c -1.752,0.672 -3.744,1.008 -5.976,1.008 z"
       fill="#000000"
       id="path13667" />
  </g>
  <g
     inkscape:label="components"
     inkscape:groupmode="layer"
     id="layer1">
    <circle
       cx="22.924999"
       cy="74.801003"
       r="5.5019999"
       fill="#ff0000"
       id="circle13679"
       inkscape:label="param_width"
       style="display:inline;stroke-width:0.131" />
    <circle
       cx="22.924999"
       cy="29.737"
       r="5.5019999"
       fill="#ff0000"
       id="circle13669"
       inkscape:label="param_select"
       style="display:inline;fill:#ff0000;stroke-width:0.131" />
    <circle
       cx="22.859499"
       cy="49.976498"
       r="2.9475"
       fill="#00ff00"
       id="circle13671"
       inkscape:label="in_select"
       style="display:inline;stroke-width:0.131" />
    <circle
       cx="8.0564995"
       cy="111.1535"
       r="2.9475"
       fill="#00ff00"
       id="circle13675"
       inkscape:label="in_voct"
       style="display:inline;stroke-width:0.131" />
    <circle
       cx="22.859499"
       cy="95.040497"
       r="2.9475"
       fill="#00ff00"
       id="circle13673"
       inkscape:label="in_width"
       style="display:inline;stroke-width:0.131" />
    <circle
       cx="37.793499"
       cy="111.1535"
       r="2.9475"
       fill="#0000ff"
       id="circle13677"
       inkscape:label="out"
       style="display:inline;stroke-width:0.131" />
  </g>
</svg>
